<svg xmlns="http://www.w3.org/2000/svg" width="40" height="39" viewBox="0 0 40 39">
    <defs>
        <linearGradient id="a" x1="0%" y1="2.469%" y2="97.531%">
            <stop offset="0%" stop-color="#4568DC"/>
            <stop offset="100%" stop-color="#B06AB3"/>
        </linearGradient>
    </defs>
    <path fill="url(#a)" fill-rule="evenodd" d="M162.417 1031.003c.97-.04 1.864.308 2.518.978a3.953 3.953 0 0 1 1.117 2.585 14.705 14.705 0 0 1 6.058 5.044 14.26 14.26 0 0 1 2.555 8.151v2.465a2.133 2.133 0 0 1 1.373 1.984v8.88a2.538 2.538 0 0 1 1.776 2.408v.984h.638c.855 0 1.548.685 1.548 1.53v2.458c0 .845-.693 1.53-1.548 1.53h-14.945a.776.776 0 0 1-.773-.887c.055-.383.405-.658.797-.658h14.906v-2.429h-36.875v2.43h14.93c.469 0 .841.409.772.886-.056.383-.406.658-.797.658h-14.92a1.539 1.539 0 0 1-1.547-1.53v-2.458c0-.845.693-1.53 1.548-1.53h.638v-.984c0-1.125.747-2.081 1.776-2.409v-8.879c0-.902.57-1.674 1.373-1.984v-2.465c0-2.918.883-5.737 2.554-8.151a14.699 14.699 0 0 1 6.059-5.045 3.956 3.956 0 0 1 1.115-2.584c.654-.67 1.55-1.017 2.519-.978a3.863 3.863 0 0 1 2.417.991 3.87 3.87 0 0 1 2.418-.991zm-2.418 37.452c.469 0 .844.409.775.885-.055.385-.407.66-.8.66a.737.737 0 0 1-.672-.409.78.78 0 0 1 .697-1.136zm-9.166-5.942h-6.09a.991.991 0 0 0-.995.985v.984h8.08v-.984a.991.991 0 0 0-.995-.985zm10.07-4.478h-1.806v6.447h1.806v-6.447zm2.7-19.231l-3.061 2.92a.784.784 0 0 1-1.086.001l-3.061-2.921c-3.7 1.466-6.154 5.008-6.154 8.957v2.465a2.134 2.134 0 0 1 1.373 1.984v8.88a2.538 2.538 0 0 1 1.776 2.408v.984h4.145v-6.447h-.324a.777.777 0 0 1-.782-.772v-2.61h-1.258a1.3 1.3 0 0 1-1.308-1.293v-2.339c0-.714.587-1.295 1.308-1.295h9.656c.723 0 1.31.58 1.31 1.295v2.339c0 .713-.588 1.293-1.31 1.293h-1.257v2.61c0 .427-.35.772-.78.772h-.325v6.447h4.142v-.984c0-1.126.748-2.082 1.779-2.41v-8.878c0-.902.57-1.674 1.373-1.984v-2.465c0-3.949-2.455-7.49-6.156-8.957zm11.654 23.709h-6.09a.992.992 0 0 0-.997.985v.984h8.082v-.984a.991.991 0 0 0-.995-.985zm-1.373-10.888h-3.344a.589.589 0 0 0-.592.585v8.758h4.528v-8.758a.589.589 0 0 0-.592-.585zm-24.424 0h-3.344a.589.589 0 0 0-.592.585v8.758h4.528v-8.758a.588.588 0 0 0-.592-.585zm12.548 3.028h-4.016v1.838h4.016v-1.838zm2.566-3.383h-9.149v1.838h9.15v-1.838zm1.23-15.11a3.913 3.913 0 0 1-.889 1.392l-.096.091c3.935 1.84 6.502 5.766 6.502 10.118v2.32h1.782v-2.32c0-4.954-2.836-9.414-7.3-11.602zm-11.609-.001c-4.462 2.187-7.298 6.647-7.298 11.602v2.32h1.782v-2.32c0-4.352 2.566-8.278 6.5-10.118l-.096-.09-.02-.02a3.912 3.912 0 0 1-.868-1.374zm4.783-2.994c-.733-.678-2.008-.913-2.79-.112a2.455 2.455 0 0 0-.01 3.398l3.82 3.645 3.822-3.645a2.451 2.451 0 0 0-.01-3.397c-.781-.801-2.057-.566-2.79.11l-.04.037c-.3.279-.56.52-.98.52-.42 0-.68-.24-.981-.52z" transform="translate(-140 -1031)"/>
</svg>
