<svg width="40" height="40" viewBox="0 0 40 40" fill="none" xmlns="http://www.w3.org/2000/svg">
<g clip-path="url(#clip0)">
<path d="M36.6007 10.3061H36.2577C36.0569 8.58552 34.6723 7.22138 32.942 7.05445C32.7433 5.19959 31.1698 3.75 29.2634 3.75H5.65248C2.49268 3.75 -0.078125 6.32081 -0.078125 9.4803V26.0352C-0.078125 27.9551 1.39099 29.5374 3.26356 29.7184C3.46009 31.5534 5.00276 32.9908 6.88173 33.021C6.88661 33.3466 6.93758 33.6609 7.03004 33.9576C7.45088 35.3086 8.7137 36.2922 10.2014 36.2922H36.6007C38.4321 36.2922 39.922 34.8023 39.922 32.9712V13.6273C39.922 11.796 38.4321 10.3061 36.6007 10.3061V10.3061ZM38.3595 13.6273V26.4194L34.961 23.8523C34.0324 23.151 32.7766 23.14 31.836 23.8251L27.537 26.9574L19.3387 18.5053C18.3622 17.4982 16.7731 17.4362 15.7212 18.3646L8.44301 24.7858V13.6273C8.44301 12.6575 9.23189 11.8686 10.2014 11.8686H36.6007C37.5706 11.8686 38.3595 12.6575 38.3595 13.6273ZM38.3595 32.9709C38.3595 33.9408 37.5706 34.7297 36.601 34.7297H10.2014C9.41378 34.7297 8.74513 34.2087 8.52236 33.4934C8.47078 33.3283 8.44301 33.1528 8.44301 32.9712V26.8692L16.7551 19.5362C17.1802 19.1608 17.8223 19.1858 18.2172 19.5929L21.9172 23.4076C21.9172 23.4079 21.9172 23.4079 21.9175 23.4079L29.2817 31.0004C29.4349 31.1585 29.6384 31.2378 29.8426 31.2378C30.0385 31.2378 30.2347 31.1646 30.3864 31.0175C30.6959 30.7169 30.7035 30.2225 30.4032 29.9128L28.6356 28.0903L32.7561 25.0882C33.1364 24.8111 33.6439 24.8154 34.0192 25.0989L38.3595 28.3774V32.9709ZM4.8047 29.322V10.8759C4.8047 10.7974 4.80866 10.7196 4.8166 10.6433C4.93318 9.49678 5.90455 8.59925 7.08131 8.59925H16.6376C17.0691 8.59925 17.4189 8.24952 17.4189 7.818C17.4189 7.38648 17.0691 7.03675 16.6376 7.03675H7.08131C4.9643 7.03675 3.24219 8.75886 3.24219 10.8759V28.1397C2.24396 27.9599 1.48438 27.0847 1.48438 26.0352V9.4803C1.48438 7.18232 3.35419 5.3125 5.65248 5.3125H29.2634C30.3004 5.3125 31.1674 6.055 31.3605 7.03675H22.8876C22.4561 7.03675 22.1064 7.38648 22.1064 7.818C22.1064 8.24952 22.4561 8.59925 22.8876 8.59925H32.1821H32.183H32.5837C33.6146 8.59925 34.4776 9.3332 34.6775 10.3061H10.2014C8.37038 10.3061 6.88051 11.796 6.88051 13.6273V26.5162V26.5168V31.4585C5.7303 31.4258 4.8047 30.4801 4.8047 29.322V29.322Z" fill="url(#paint0_linear)"/>
<path d="M30.2747 15.0483C28.4308 15.0483 26.9312 16.5483 26.9312 18.3915C26.9312 20.2351 28.4312 21.7351 30.2747 21.7351C32.118 21.7351 33.6179 20.2351 33.6179 18.3915C33.6179 16.5483 32.118 15.0483 30.2747 15.0483ZM30.2747 20.1725C29.2927 20.1725 28.4937 19.3736 28.4937 18.3918C28.4937 17.4098 29.2927 16.6108 30.2747 16.6108C31.2565 16.6108 32.0554 17.4098 32.0554 18.3918C32.0554 19.3736 31.2565 20.1725 30.2747 20.1725Z" fill="url(#paint1_linear)"/>
<path d="M19.0415 8.11696C19.061 8.16396 19.0851 8.20912 19.1132 8.25154C19.1416 8.29427 19.1743 8.33425 19.2103 8.37026C19.2463 8.40596 19.286 8.43892 19.329 8.46791C19.3711 8.49599 19.4172 8.5201 19.4642 8.53963C19.5109 8.55916 19.5603 8.57411 19.6104 8.58419C19.6601 8.59426 19.7117 8.59914 19.7626 8.59914C19.8142 8.59914 19.8649 8.59426 19.9158 8.58419C19.9656 8.57411 20.0141 8.55916 20.0617 8.53963C20.1087 8.5201 20.1539 8.49599 20.1963 8.46791C20.239 8.43892 20.279 8.40596 20.315 8.37026C20.3516 8.33425 20.3837 8.29427 20.4127 8.25154C20.4407 8.20912 20.4649 8.16396 20.4844 8.11696C20.5039 8.06935 20.5189 8.02022 20.5289 7.97109C20.539 7.92012 20.5439 7.86855 20.5439 7.81789C20.5439 7.76692 20.539 7.71535 20.5289 7.6656C20.5189 7.61556 20.5039 7.56612 20.4844 7.51943C20.4649 7.47182 20.4407 7.42635 20.4127 7.38423C20.3837 7.3412 20.3516 7.30153 20.315 7.26552C20.279 7.22951 20.239 7.19685 20.1963 7.16847C20.1539 7.1404 20.1087 7.11629 20.0617 7.09676C20.0141 7.07722 19.9656 7.06227 19.9158 7.0522C19.8148 7.03175 19.7111 7.03175 19.6104 7.0522C19.5603 7.06227 19.5109 7.07722 19.4642 7.09676C19.4172 7.11629 19.3711 7.1404 19.329 7.16847C19.286 7.19685 19.2463 7.22951 19.2103 7.26552C19.1743 7.30153 19.1416 7.3412 19.1132 7.38423C19.0851 7.42635 19.061 7.47182 19.0415 7.51943C19.022 7.56612 19.007 7.61556 18.9969 7.6656C18.9869 7.71535 18.9814 7.76692 18.9814 7.81789C18.9814 7.86855 18.9869 7.92012 18.9969 7.97109C19.007 8.02022 19.022 8.06935 19.0415 8.11696Z" fill="url(#paint2_linear)"/>
</g>
<defs>
<linearGradient id="paint0_linear" x1="-0.078125" y1="3.75" x2="6.57248" y2="42.0788" gradientUnits="userSpaceOnUse">
<stop stop-color="#4568DC"/>
<stop offset="1" stop-color="#B06AB3"/>
</linearGradient>
<linearGradient id="paint1_linear" x1="26.9312" y1="15.0483" x2="28.5862" y2="22.8082" gradientUnits="userSpaceOnUse">
<stop stop-color="#4568DC"/>
<stop offset="1" stop-color="#B06AB3"/>
</linearGradient>
<linearGradient id="paint2_linear" x1="18.9814" y1="7.03687" x2="19.368" y2="8.84989" gradientUnits="userSpaceOnUse">
<stop stop-color="#4568DC"/>
<stop offset="1" stop-color="#B06AB3"/>
</linearGradient>
<clipPath id="clip0">
<rect width="40" height="40" fill="white"/>
</clipPath>
</defs>
</svg>
