<svg xmlns="http://www.w3.org/2000/svg" width="40" height="40" viewBox="0 0 40 40">
    <defs>
        <linearGradient id="a" x1="0%" y1="0%" y2="100%">
            <stop offset="0%" stop-color="#4568DC"/>
            <stop offset="100%" stop-color="#B06AB3"/>
        </linearGradient>
    </defs>
    <path fill="url(#a)" fill-rule="evenodd" d="M165 1606c7.189 0 13.04 5.823 13.042 12.98.053 5.175-2.116 8.943-4.786 12.598h5.15c.875 0 1.315.307 1.679 1.172l4.723 11.214c.095.226.382.91-.004 1.488-.243.364-.655.548-1.227.548h-15.056a.783.783 0 0 1-.784-.781c0-.432.351-.782.784-.782h14.785l-4.668-11.083a2.184 2.184 0 0 0-.099-.21 2.162 2.162 0 0 0-.134-.004h-6.318l-.622.814c-.275.36-.558.73-.84 1.102 1.9.837 3.005 2.09 3.005 3.47 0 1.318-.974 2.509-2.743 3.353-1.586.757-3.677 1.174-5.888 1.174-2.21 0-4.301-.417-5.887-1.174-1.769-.844-2.743-2.035-2.743-3.352 0-1.38 1.104-2.634 3.006-3.471-.284-.375-1.258-1.648-1.462-1.916h-6.373l-.078.004a2.162 2.162 0 0 0-.1.21l-4.667 11.083h14.776c.433 0 .785.35.785.782a.783.783 0 0 1-.785.781h-15.05c-.57 0-.984-.185-1.226-.549-.386-.578-.096-1.263 0-1.488l4.721-11.213c.365-.865.804-1.172 1.678-1.172h5.15c-2.67-3.654-4.838-7.422-4.784-12.6.002-7.157 5.85-12.978 13.04-12.978zm-.003 38.438c.433 0 .786.35.786.78 0 .432-.35.782-.783.782a.783.783 0 0 1-.787-.781c0-.432.351-.782.784-.782zm4.572-8.125l-1.89 2.18c-.777.895-1.702 1.37-2.677 1.373-.98-.003-1.906-.478-2.681-1.374l-1.89-2.179c-1.53.574-2.493 1.418-2.493 2.213 0 .674.675 1.382 1.852 1.944 1.378.658 3.228 1.02 5.21 1.02 1.98 0 3.83-.362 5.209-1.02 1.177-.562 1.853-1.27 1.853-1.944 0-.795-.963-1.639-2.493-2.213zm-4.57-28.75c-6.325 0-11.47 5.122-11.47 11.418-.062 5.773 2.861 9.593 6.246 14.017.347.452 3.733 4.473 3.733 4.473.328.379.853.83 1.494.832.636-.002 1.162-.454 1.491-.832 0 0 3.38-4.015 3.725-4.465 3.388-4.426 6.315-8.249 6.255-14.017-.002-6.304-5.149-11.427-11.473-11.427zm0 2.047c5.191 0 9.414 4.204 9.414 9.371 0 5.167-4.223 9.371-9.413 9.371-5.191 0-9.414-4.203-9.414-9.37 0-5.168 4.223-9.372 9.414-9.372zm0 1.562c-4.325 0-7.844 3.503-7.844 7.81 0 4.305 3.519 7.808 7.845 7.808 4.325 0 7.845-3.503 7.845-7.809s-3.52-7.809-7.845-7.809zm-4.14 4.009c1.067-1.102 2.89-1.123 4.14-.078 1.254-1.045 3.077-1.023 4.144.078 1.275 1.317 1.275 3.46 0 4.776l-.02.02-3.58 3.438a.784.784 0 0 1-1.088 0l-3.577-3.438a.766.766 0 0 1-.02-.02c-1.277-1.316-1.277-3.46 0-4.776zm7.155 1.085c-.577-.596-1.53-.412-2.081.1l-.034.03c-.245.23-.498.465-.899.465-.399 0-.653-.235-.898-.463l-.034-.031c-.552-.514-1.503-.697-2.081-.1a1.886 1.886 0 0 0-.01 2.596l3.023 2.904 3.023-2.903a1.89 1.89 0 0 0-.009-2.598z" transform="translate(-145 -1606)"/>
</svg>
