<svg viewBox="0 0 246 246" xmlns="http://www.w3.org/2000/svg" fill-rule="evenodd" clip-rule="evenodd" stroke-linecap="round" stroke-linejoin="round" stroke-miterlimit="10"><g fill="#1e388f" fill-opacity=".33"><path d="M41.717 211.721h157.862v13.907H41.717zM48.581 194.433h144.133v13.907H48.581zM55.445 177.353h130.407v13.907H55.445z"/><path d="M120.648 21.843c-32.88 0-59.534 27.005-59.534 60.318v93.01h13.727v-93.01c0-25.59 20.55-46.411 45.807-46.411s45.807 20.821 45.807 46.411v93.01h13.727v-93.01c0-33.313-26.654-60.318-59.534-60.318" fill-rule="nonzero"/></g><path d="M129.83 7.68c-3.656 0-6.934 1.622-9.183 4.191-2.247-2.569-5.527-4.191-9.181-4.191-6.776 0-12.269 5.564-12.269 12.429 0 8.375 10.661 19.073 17.816 25.272 2.196 1.901 4.968 1.767 7.268 0 8.074-6.199 17.817-16.432 17.817-25.272 0-6.865-5.492-12.429-12.268-12.429M42.474 53.158a6.068 6.068 0 00-2.863 4.066 5.921 5.921 0 00-4.903.522c-2.866 1.693-3.835 5.419-2.164 8.323 2.037 3.54 9.151 5.402 13.686 6.236 1.39.256 2.53-.494 3.074-1.816 1.906-4.639 3.536-11.401 1.385-15.139-1.671-2.903-5.349-3.885-8.215-2.192M210.532 55.545a5.926 5.926 0 00-4.931-.035 6.043 6.043 0 00-3.241-3.764c-3.015-1.403-6.581-.063-7.964 2.991-1.687 3.727.901 10.693 2.835 14.932.593 1.299 1.852 1.814 3.234 1.504 4.84-1.088 11.238-3.626 13.021-7.559 1.383-3.055.061-6.667-2.954-8.069" fill="#db5a7e" fill-rule="nonzero"/><g fill="#dbb244" fill-rule="nonzero"><path d="M69.18 38.16c-3.107-4.003-6.303-3.406-6.303-3.406s-1.322 3.007 1.785 7.009c3.105 4.003 6.3 3.407 6.3 3.407s1.325-3.008-1.782-7.01M61.401 34.969c-.536-3.508-2.678-4.255-2.678-4.255s-1.328.799-1.118 4.148c.223 3.544 2.514 4.983 2.514 4.983s1.817-1.368 1.282-4.876M49.186 23.293c-1.284-4.62.939-6.757.939-6.757s2.995.65 4.277 5.27c1.283 4.62-.938 6.755-.938 6.755s-2.994-.648-4.278-5.268M50.124 37.007c-4.637-.965-5.49-3.947-5.49-3.947s1.941-2.399 6.578-1.435c4.64.965 5.493 3.947 5.493 3.947s-1.944 2.4-6.581 1.435M57.937 47.163c-5.137 1.139-7.327-1.498-7.327-1.498s.903-3.322 6.039-4.462c5.137-1.138 7.327 1.499 7.327 1.499s-.903 3.323-6.039 4.461"/><path d="M87.208 41.247s-.579.437-1.643 1.053a26.47 26.47 0 01-4.63 2.107c-1.987.681-4.411 1.246-7.047 1.257-2.626.023-5.446-.519-7.984-1.72-1.263-.601-2.48-1.306-3.582-2.139-.285-.192-.541-.423-.81-.634-.262-.224-.534-.416-.781-.659-.488-.464-.985-.901-1.418-1.405-.912-.955-1.652-1.991-2.334-2.984-.648-1.015-1.23-1.996-1.687-2.944a32.568 32.568 0 01-1.167-2.62 34.43 34.43 0 01-.733-2.088c-.367-1.17-.509-1.859-.509-1.859s.155.685.54 1.85c.19.582.451 1.28.768 2.071.333.784.717 1.666 1.208 2.59.472.937 1.067 1.901 1.726 2.9.694.972 1.449 1.991 2.361 2.911.427.483.936.916 1.431 1.369.503.426 1.037.853 1.588 1.245 1.097.802 2.307 1.474 3.556 2.041 2.507 1.135 5.264 1.611 7.82 1.545 2.564-.056 4.916-.649 6.84-1.345 1.932-.7 3.45-1.517 4.474-2.133 1.029-.618 1.556-1.032 1.556-1.032a.38.38 0 01.538.067.393.393 0 01-.072.549l-.009.007zM87.088 42.142s-.68 2.335-2.348 5.529c-.84 1.59-1.916 3.4-3.282 5.182-.669.903-1.437 1.773-2.234 2.639-.825.836-1.682 1.673-2.621 2.41-.917.764-1.914 1.422-2.91 2.038-.51.286-1.019.567-1.531.829-.523.231-1.027.494-1.548.69a23.689 23.689 0 01-3.05.982c-.499.106-.982.22-1.452.309-.473.067-.931.133-1.372.194-.438.069-.865.069-1.269.105-.403.022-.786.063-1.147.05-.72-.017-1.35.015-1.866-.037l-1.62-.127 1.62.11c.516.047 1.146.009 1.866.017.359.011.742-.034 1.144-.062.401-.039.828-.043 1.265-.115.438-.068.895-.137 1.367-.209.467-.094.946-.213 1.442-.323a23.58 23.58 0 003.026-1.008c.517-.201 1.014-.466 1.534-.701a48.663 48.663 0 001.512-.84c.983-.621 1.965-1.286 2.869-2.053.925-.741 1.765-1.582 2.577-2.42.782-.866 1.534-1.737 2.19-2.638 1.337-1.783 2.386-3.589 3.202-5.175a37.98 37.98 0 001.744-3.943c.365-.978.525-1.545.525-1.545a.19.19 0 01.236-.132c.103.03.162.136.133.24h-.002v.004z"/><path d="M76.716 48.348s-.385-2.19 3.147-3.528c3.534-1.338 6.048.046 6.048.046s-1.002 2.715-4.534 4.053c-3.534 1.338-4.661-.571-4.661-.571"/><path d="M89.351 54.187s-2.16.39-3.483-3.193c-1.322-3.581.043-6.128.043-6.128s2.679 1.015 4.002 4.598c1.322 3.581-.562 4.723-.562 4.723M73.628 52.877s.158-1.883 3.346-2.195c3.19-.312 4.953 1.385 4.953 1.385s-1.409 2.004-4.599 2.315c-3.188.312-3.7-1.505-3.7-1.505"/><path d="M82.731 60.479s-1.859-.161-2.166-3.394c-.31-3.232 1.363-5.018 1.363-5.018s1.978 1.429 2.287 4.661c.308 3.234-1.484 3.751-1.484 3.751M70.008 56.516s.49-1.495 3.137-1.116c2.645.379 3.748 2.101 3.748 2.101s-1.529 1.346-4.175.967c-2.645-.377-2.71-1.952-2.71-1.952"/><path d="M75.923 64.478s-1.475-.498-1.103-3.179c.374-2.68 2.072-3.798 2.072-3.798s1.33 1.551.956 4.233c-.372 2.679-1.925 2.744-1.925 2.744M66.326 58.368s.759-1.149 2.91-.203c2.153.944 2.689 2.662 2.689 2.662s-1.602.779-3.754-.168c-2.153-.944-1.845-2.291-1.845-2.291"/><path d="M69.502 66.502s-1.134-.769-.202-2.951c.932-2.181 2.626-2.724 2.626-2.724s.768 1.625-.164 3.807c-.93 2.179-2.26 1.868-2.26 1.868M62.572 59.707s.79-.859 2.466.231c1.678 1.088 1.897 2.603 1.897 2.603s-1.448.429-3.125-.658c-1.676-1.09-1.238-2.176-1.238-2.176"/><path d="M64.141 66.961s-.847-.8.227-2.5c1.073-1.698 2.567-1.92 2.567-1.92s.425 1.468-.648 3.166c-1.074 1.698-2.146 1.254-2.146 1.254M59.649 60.204s.733-.454 1.72.662c.985 1.118.845 2.245.845 2.245s-1.121.015-2.107-1.101c-.985-1.118-.458-1.806-.458-1.806"/><path d="M59.347 65.709s-.448-.744.654-1.743c1.101-.998 2.213-.854 2.213-.854s.015 1.134-1.086 2.132c-1.102.999-1.781.465-1.781.465M57.41 60.896s.503-.235 1.052.552c.549.789.378 1.5.378 1.5s-.719-.074-1.267-.862c-.549-.789-.163-1.19-.163-1.19"/><path d="M56.816 64.395s-.232-.509.545-1.065c.777-.556 1.479-.383 1.479-.383s-.073.728-.851 1.284c-.777.558-1.173.164-1.173.164M85.609 31.804s-.112-.348-.364-.95a24.085 24.085 0 00-1.184-2.419 22.65 22.65 0 00-2.129-3.153 17.827 17.827 0 00-3.1-3.044c-.584-.457-1.214-.847-1.844-1.211a30.097 30.097 0 00-.965-.487c-.331-.134-.648-.287-.976-.401a14.701 14.701 0 00-1.917-.554c-.313-.058-.617-.114-.91-.166-.298-.034-.586-.065-.86-.097a17.126 17.126 0 00-1.514-.051c-.449.023-.845.015-1.166.056l-1.013.111s.369-.047 1.011-.126c.323-.048.717-.046 1.168-.078a17.01 17.01 0 011.518.028l.865.082.918.153c.628.125 1.28.297 1.941.526.331.109.655.26.991.389.327.149.653.311.983.475.643.359 1.286.743 1.882 1.197 1.212.882 2.29 1.944 3.19 3.028a22.732 22.732 0 012.205 3.159c1.14 1.956 1.633 3.406 1.633 3.406v.002a.195.195 0 01-.118.248.194.194 0 01-.245-.122v-.001z"/><path d="M79.246 28.092s-.184 1.383 2.065 2.125c2.246.743 3.784-.192 3.784-.192s-.698-1.672-2.946-2.416c-2.247-.743-2.903.483-2.903.483"/><path d="M87.003 24.096s-1.363-.186-2.096 2.092c-.733 2.279.188 3.839.188 3.839s1.65-.71 2.383-2.988c.735-2.278-.475-2.943-.475-2.943M77.193 25.339s.149 1.176 2.153 1.284c2.006.11 3.065-.998 3.065-.998s-.936-1.219-2.941-1.329c-2.004-.108-2.277 1.043-2.277 1.043"/><path d="M82.692 20.334s-1.158.151-1.267 2.183c-.107 2.032.985 3.107.985 3.107s1.203-.948 1.31-2.982c.109-2.032-1.028-2.308-1.028-2.308M74.831 23.157s.346.922 1.993.614c1.646-.308 2.291-1.416 2.291-1.416s-.993-.801-2.639-.493c-1.647.308-1.645 1.295-1.645 1.295"/><path d="M78.324 18.012s-.909.351-.606 2.021c.304 1.668 1.396 2.323 1.396 2.323s.792-1.008.488-2.676c-.303-1.67-1.278-1.668-1.278-1.668M72.476 22.096s.505.7 1.827.051c1.323-.652 1.614-1.741 1.614-1.741s-1.024-.445-2.347.205c-1.322.649-1.094 1.485-1.094 1.485"/><path d="M74.251 16.917s-.689.514-.05 1.853c.641 1.34 1.717 1.637 1.717 1.637s.438-1.039-.203-2.379c-.641-1.342-1.464-1.111-1.464-1.111M70.091 21.359s.517.516 1.538-.211c1.022-.728 1.119-1.682 1.119-1.682s-.919-.229-1.939.497c-1.022.728-.718 1.396-.718 1.396"/><path d="M70.882 16.774s-.508.524.208 1.56c.716 1.033 1.658 1.132 1.658 1.132s.228-.929-.49-1.965c-.717-1.035-1.376-.727-1.376-.727M68.247 21.126s.472.265 1.059-.461c.588-.726.47-1.428.47-1.428s-.702.019-1.289.745c-.588.726-.24 1.144-.24 1.144"/><path d="M67.913 17.686s-.261.478.455 1.073c.716.598 1.409.478 1.409.478s-.02-.713-.737-1.308c-.716-.595-1.127-.243-1.127-.243M66.828 20.753s.32.134.644-.375c.323-.508.197-.948.197-.948s-.449.065-.771.573c-.323.509-.07.75-.07.75"/><path d="M66.363 18.577s-.132.325.37.653c.501.327.936.2.936.2s-.064-.454-.567-.782c-.501-.328-.739-.071-.739-.071"/></g><g fill="#ff82a5" fill-rule="nonzero"><path d="M87.143 42.524c-.004-.013-.01-.024-.01-.024l-.011.011a2.109 2.109 0 00.011-.011l.002.002.024.062-.016-.04m.014-.024h-.02l.035-.002-.015.002m9.456 1.848c-2.907-1.924-7.504-1.928-8.992-1.872 1.49-.095 6.06-.56 8.761-2.765 2.513-2.051 3.354-4.869 2.087-6.464-1.267-1.596-4.162-1.364-6.674.686-2.617 2.137-4.036 6.36-4.494 7.944.394-1.601 1.273-5.973.077-9.157-1.147-3.054-3.532-4.737-5.42-4.008-1.888.728-2.565 3.592-1.418 6.647 1.206 3.213 4.785 5.906 6.102 6.815-1.347-.859-5.218-3.102-8.607-2.93-3.221.162-5.536 1.941-5.437 3.986.1 2.045 2.579 3.584 5.8 3.422 3.464-.175 7.183-2.909 8.358-3.842-1.148.961-4.581 4.064-5.489 7.46-.843 3.156.111 5.938 2.059 6.473 1.951.536 4.159-1.377 5.003-4.532.915-3.424-.535-7.904-1.035-9.283.532 1.367 2.386 5.689 5.317 7.63 2.7 1.787 5.604 1.728 6.709.015 1.105-1.715-.007-4.436-2.707-6.225M70.336 53.127c-.285-.431-.878-.694-1.411-.849.551.06 1.198.045 1.625-.244.672-.457.808-1.351.355-2.034-.451-.683-1.317-.896-1.991-.437-.425.289-.685.89-.838 1.43.059-.56.046-1.215-.239-1.646-.451-.683-1.333-.819-2.007-.362-.675.459-.885 1.338-.433 2.019.285.433.878.694 1.412.851-.552-.062-1.199-.047-1.624.242-.674.457-.809 1.353-.357 2.034.451.683 1.318.896 1.991.439.427-.289.685-.89.839-1.431-.06.559-.046 1.214.24 1.645.451.683 1.333.821 2.005.362.674-.457.884-1.336.433-2.019"/><path d="M77.204 34.407c-.453-.241-1.098-.185-1.641-.065.514-.213 1.076-.538 1.313-.998.378-.728.076-1.579-.643-1.962-.718-.38-1.58-.149-1.957.579-.238.459-.183 1.112-.063 1.662-.212-.52-.532-1.089-.985-1.332-.719-.381-1.558-.075-1.934.653-.378.728-.149 1.601.569 1.984.455.241 1.1.185 1.641.065-.514.213-1.076.538-1.313.998-.376.728-.076 1.579.643 1.96.718.382 1.58.151 1.957-.577.238-.461.183-1.114.065-1.662.21.52.53 1.089.983 1.33.719.383 1.558.076 1.936-.651.376-.728.147-1.601-.571-1.984"/></g><g fill="#dbb244" fill-rule="nonzero"><path d="M173.417 38.16c3.107-4.003 6.302-3.406 6.302-3.406s1.322 3.007-1.785 7.009c-3.105 4.003-6.3 3.407-6.3 3.407s-1.324-3.008 1.783-7.01M181.196 34.969c.536-3.508 2.678-4.255 2.678-4.255s1.327.799 1.118 4.148c-.223 3.544-2.514 4.983-2.514 4.983s-1.818-1.368-1.282-4.876M193.41 23.293c1.284-4.62-.939-6.757-.939-6.757s-2.995.65-4.277 5.27c-1.283 4.62.938 6.755.938 6.755s2.995-.648 4.278-5.268M192.472 37.007c4.638-.965 5.49-3.947 5.49-3.947s-1.941-2.399-6.578-1.435c-4.64.965-5.492 3.947-5.492 3.947s1.943 2.4 6.58 1.435M184.66 47.163c5.136 1.139 7.326-1.498 7.326-1.498s-.902-3.322-6.039-4.462c-5.137-1.138-7.326 1.499-7.326 1.499s.902 3.323 6.039 4.461"/><path d="M155.389 41.247s.578.437 1.642 1.053a26.54 26.54 0 004.63 2.107c1.988.681 4.411 1.246 7.047 1.257 2.626.023 5.446-.519 7.984-1.72 1.263-.601 2.481-1.306 3.582-2.139.285-.192.541-.423.81-.634.262-.224.534-.416.781-.659.488-.464.986-.901 1.418-1.405.912-.955 1.652-1.991 2.334-2.984.648-1.015 1.23-1.996 1.687-2.944.477-.937.847-1.829 1.167-2.62.304-.799.553-1.5.733-2.088.367-1.17.509-1.859.509-1.859s-.155.685-.54 1.85a34.82 34.82 0 01-.768 2.071 31.992 31.992 0 01-1.208 2.59c-.471.937-1.066 1.901-1.726 2.9-.694.972-1.449 1.991-2.361 2.911-.427.483-.935.916-1.431 1.369-.503.426-1.037.853-1.587 1.245-1.098.802-2.308 1.474-3.557 2.041-2.506 1.135-5.263 1.611-7.82 1.545-2.563-.056-4.915-.649-6.84-1.345a25.611 25.611 0 01-4.473-2.133c-1.03-.618-1.557-1.032-1.557-1.032a.38.38 0 00-.537.067.392.392 0 00.07.549l.011.007zM155.508 42.142s.68 2.335 2.348 5.529c.84 1.59 1.916 3.4 3.282 5.182.669.903 1.437 1.773 2.234 2.639.826.836 1.682 1.673 2.621 2.41.917.764 1.914 1.422 2.91 2.038.51.286 1.019.567 1.531.829.523.231 1.027.494 1.549.69 1.033.414 2.062.735 3.049.982.5.106.982.22 1.452.309.473.067.932.133 1.372.194.438.069.865.069 1.269.105.403.022.786.063 1.147.05.72-.017 1.35.015 1.866-.037l1.62-.127-1.62.11c-.516.047-1.146.009-1.866.017-.359.011-.742-.034-1.144-.062-.401-.039-.828-.043-1.265-.115l-1.366-.209c-.468-.094-.947-.213-1.442-.323a23.528 23.528 0 01-3.026-1.008c-.518-.201-1.015-.466-1.535-.701a48.663 48.663 0 01-1.512-.84c-.983-.621-1.965-1.286-2.869-2.053-.925-.741-1.764-1.582-2.577-2.42-.782-.866-1.534-1.737-2.189-2.638-1.338-1.783-2.387-3.589-3.203-5.175a37.98 37.98 0 01-1.744-3.943c-.365-.978-.525-1.545-.525-1.545a.19.19 0 00-.236-.132.194.194 0 00-.133.24h.002v.004z"/><path d="M165.881 48.348s.384-2.19-3.148-3.528c-3.534-1.338-6.048.046-6.048.046s1.002 2.715 4.534 4.053c3.534 1.338 4.662-.571 4.662-.571"/><path d="M153.245 54.187s2.161.39 3.483-3.193c1.322-3.581-.042-6.128-.042-6.128s-2.68 1.015-4.003 4.598c-1.322 3.581.562 4.723.562 4.723M168.968 52.877s-.158-1.883-3.346-2.195c-3.19-.312-4.952 1.385-4.952 1.385s1.408 2.004 4.598 2.315c3.188.312 3.7-1.505 3.7-1.505"/><path d="M159.866 60.479s1.858-.161 2.165-3.394c.31-3.232-1.362-5.018-1.362-5.018s-1.978 1.429-2.288 4.661c-.307 3.234 1.485 3.751 1.485 3.751M172.588 56.516s-.49-1.495-3.137-1.116c-2.644.379-3.747 2.101-3.747 2.101s1.528 1.346 4.175.967c2.644-.377 2.709-1.952 2.709-1.952"/><path d="M166.673 64.478s1.475-.498 1.103-3.179c-.373-2.68-2.072-3.798-2.072-3.798s-1.329 1.551-.955 4.233c.372 2.679 1.924 2.744 1.924 2.744M176.27 58.368s-.759-1.149-2.91-.203c-2.153.944-2.689 2.662-2.689 2.662s1.603.779 3.754-.168c2.153-.944 1.845-2.291 1.845-2.291"/><path d="M173.094 66.502s1.134-.769.203-2.951c-.932-2.181-2.627-2.724-2.627-2.724s-.768 1.625.164 3.807c.93 2.179 2.26 1.868 2.26 1.868M180.024 59.707s-.79-.859-2.466.231c-1.677 1.088-1.897 2.603-1.897 2.603s1.448.429 3.126-.658c1.676-1.09 1.237-2.176 1.237-2.176"/><path d="M178.455 66.961s.847-.8-.226-2.5c-1.074-1.698-2.568-1.92-2.568-1.92s-.425 1.468.648 3.166c1.074 1.698 2.146 1.254 2.146 1.254M182.948 60.204s-.733-.454-1.721.662c-.985 1.118-.845 2.245-.845 2.245s1.122.015 2.107-1.101c.985-1.118.459-1.806.459-1.806"/><path d="M183.249 65.709s.448-.744-.653-1.743c-1.102-.998-2.214-.854-2.214-.854s-.015 1.134 1.086 2.132c1.102.999 1.781.465 1.781.465M185.186 60.896s-.503-.235-1.052.552c-.549.789-.378 1.5-.378 1.5s.719-.074 1.268-.862c.548-.789.162-1.19.162-1.19"/><path d="M185.78 64.395s.232-.509-.545-1.065c-.777-.556-1.479-.383-1.479-.383s.074.728.851 1.284c.777.558 1.173.164 1.173.164M156.987 31.804s.112-.348.364-.95a24.13 24.13 0 011.185-2.419 22.561 22.561 0 012.129-3.153 17.785 17.785 0 013.099-3.044c.584-.457 1.214-.847 1.844-1.211.322-.168.645-.334.965-.487.332-.134.648-.287.976-.401.652-.237 1.297-.42 1.917-.554.313-.058.617-.114.91-.166.299-.034.586-.065.86-.097a17.138 17.138 0 011.514-.051c.45.023.845.015 1.166.056l1.013.111s-.368-.047-1.011-.126c-.323-.048-.717-.046-1.168-.078a16.982 16.982 0 00-1.517.028l-.866.082-.917.153c-.628.125-1.28.297-1.941.526-.332.109-.656.26-.991.389-.328.149-.654.311-.984.475-.643.359-1.285.743-1.882 1.197-1.212.882-2.289 1.944-3.19 3.028a22.719 22.719 0 00-2.204 3.159c-1.14 1.956-1.634 3.406-1.634 3.406v.002a.195.195 0 00.118.248.194.194 0 00.245-.122v-.001z"/><path d="M163.35 28.092s.185 1.383-2.064 2.125c-2.247.743-3.785-.192-3.785-.192s.698-1.672 2.947-2.416c2.247-.743 2.902.483 2.902.483"/><path d="M155.593 24.096s1.363-.186 2.096 2.092c.733 2.279-.188 3.839-.188 3.839s-1.65-.71-2.383-2.988c-.735-2.278.475-2.943.475-2.943M165.403 25.339s-.149 1.176-2.153 1.284c-2.006.11-3.065-.998-3.065-.998s.936-1.219 2.942-1.329c2.003-.108 2.276 1.043 2.276 1.043"/><path d="M159.904 20.334s1.159.151 1.267 2.183c.107 2.032-.985 3.107-.985 3.107s-1.203-.948-1.31-2.982c-.108-2.032 1.028-2.308 1.028-2.308M167.765 23.157s-.346.922-1.993.614c-1.646-.308-2.291-1.416-2.291-1.416s.993-.801 2.639-.493c1.647.308 1.645 1.295 1.645 1.295"/><path d="M164.272 18.012s.91.351.606 2.021c-.304 1.668-1.396 2.323-1.396 2.323s-.792-1.008-.488-2.676c.304-1.67 1.278-1.668 1.278-1.668M170.12 22.096s-.505.7-1.827.051c-1.323-.652-1.614-1.741-1.614-1.741s1.024-.445 2.347.205c1.322.649 1.094 1.485 1.094 1.485"/><path d="M168.345 16.917s.689.514.05 1.853c-.641 1.34-1.716 1.637-1.716 1.637s-.439-1.039.202-2.379c.641-1.342 1.464-1.111 1.464-1.111M172.506 21.359s-.518.516-1.538-.211c-1.022-.728-1.12-1.682-1.12-1.682s.919-.229 1.939.497c1.022.728.719 1.396.719 1.396"/><path d="M171.714 16.774s.508.524-.208 1.56c-.716 1.033-1.658 1.132-1.658 1.132s-.228-.929.49-1.965c.717-1.035 1.376-.727 1.376-.727M174.349 21.126s-.472.265-1.059-.461c-.588-.726-.47-1.428-.47-1.428s.702.019 1.29.745c.587.726.239 1.144.239 1.144"/><path d="M174.683 17.686s.262.478-.455 1.073c-.716.598-1.409.478-1.409.478s.02-.713.737-1.308c.716-.595 1.127-.243 1.127-.243M175.769 20.753s-.321.134-.645-.375c-.322-.508-.197-.948-.197-.948s.449.065.772.573c.322.509.07.75.07.75"/><path d="M176.233 18.577s.132.325-.37.653c-.501.327-.936.2-.936.2s.065-.454.567-.782c.501-.328.739-.071.739-.071"/></g><g fill="#ff82a5" fill-rule="nonzero"><path d="M155.438 42.564a1.75 1.75 0 00.022-.063h.002a.709.709 0 00.011.009l-.011-.009-.008.024c-.005.009-.009.022-.016.039m-.013-.065h.035v.002l-.022-.002h-.013m-12.15 8.072c1.105 1.715 4.01 1.775 6.71-.013 2.93-1.94 4.786-6.264 5.317-7.632-.501 1.381-1.951 5.859-1.035 9.284.843 3.157 3.051 5.07 5.002 4.534 1.95-.536 2.904-3.318 2.061-6.473-.908-3.398-4.341-6.499-5.489-7.46 1.173.933 4.894 3.666 8.358 3.84 3.221.162 5.698-1.375 5.8-3.421.099-2.045-2.216-3.825-5.437-3.985-3.389-.172-7.26 2.071-8.608 2.927 1.316-.907 4.895-3.599 6.101-6.812 1.148-3.055.472-5.919-1.418-6.649-1.888-.728-4.271.954-5.418 4.01-1.196 3.183-.317 7.554.077 9.157-.458-1.585-1.877-5.807-4.494-7.944-2.512-2.051-5.409-2.284-6.676-.689-1.267 1.596-.425 4.415 2.087 6.466 2.702 2.206 7.273 2.67 8.763 2.766-1.488-.056-6.087-.053-8.992 1.871-2.7 1.79-3.814 4.508-2.709 6.223M172.26 53.127c.286-.431.879-.694 1.411-.849-.551.06-1.197.045-1.625-.244-.672-.457-.808-1.351-.355-2.034.451-.683 1.317-.896 1.991-.437.425.289.685.89.838 1.43-.059-.56-.046-1.215.239-1.646.453-.683 1.334-.819 2.008-.362.674.459.884 1.338.433 2.019-.286.433-.879.694-1.413.851.552-.062 1.199-.047 1.624.242.674.457.809 1.353.358 2.034-.452.683-1.319.896-1.991.439-.428-.289-.685-.89-.84-1.431.061.559.046 1.214-.24 1.645-.451.683-1.333.821-2.005.362-.674-.457-.884-1.336-.433-2.019"/><path d="M165.392 34.407c.453-.241 1.098-.185 1.641-.065-.514-.213-1.076-.538-1.313-.998-.378-.728-.076-1.579.643-1.962.718-.38 1.58-.149 1.957.579.238.459.183 1.112.063 1.662.212-.52.532-1.089.985-1.332.719-.381 1.558-.075 1.934.653.378.728.149 1.601-.569 1.984-.455.241-1.099.185-1.641.065.514.213 1.076.538 1.313.998.376.728.076 1.579-.643 1.96-.718.382-1.58.151-1.957-.577-.238-.461-.183-1.114-.065-1.662-.21.52-.53 1.089-.983 1.33-.718.383-1.558.076-1.936-.651-.376-.728-.147-1.601.571-1.984"/></g><path d="M95.556 80.428c-5.107 1.405-9.745 4.196-14.016 7.365-3.888 2.885-7.591 6.182-10.085 10.36-3.109 5.212-4.124 11.433-4.451 17.514-.212 3.911-.164 7.851.44 11.719.972 6.234 3.366 12.164 4.403 18.387.474 2.837.66 5.718.658 8.593-.006 5.815-.925 11.96-4.56 16.457 5.643-1.687 11.538-3.389 17.329-2.335 3.617.659 7.024 2.378 10.689 2.652 5.032.377 9.813-1.986 14.4-4.111 4.59-2.125 11.712-.664 16.624.496-3.286-4.418-4.078-23.276-4.063-25.036.015-1.799.528-18.247 1.462-26.025.334-2.773-.468-6.908-.637-9.696-.462-7.684-4.468-15.073-10.621-19.589-4.547-3.34-10.019-5.079-15.384-6.766-.98-.308-2.061-.612-3.004-.202" fill="#e6e7e8" fill-rule="nonzero"/><path d="M125.642 195.473c.019 1.326-1.029 2.418-2.338 2.435-1.31.018-2.387-1.042-2.404-2.368-.018-1.329 1.028-2.419 2.339-2.437 1.31-.019 2.385 1.043 2.403 2.37" fill="#f0c7c0" fill-rule="nonzero"/><path d="M121.76 195.501l-.015 4.719c.017 1.125.895 2.023 1.963 2.008 1.071-.015 1.925-.939 1.91-2.062l.013-4.654-3.871-.011z" fill="#f0c7c0" fill-rule="nonzero"/><path d="M118.934 195.645c-.019 1.327 1.029 2.418 2.339 2.435 1.309.019 2.387-1.041 2.403-2.368.019-1.329-1.028-2.418-2.339-2.437-1.309-.019-2.385 1.043-2.403 2.37" fill="#f0c7c0" fill-rule="nonzero"/><path d="M122.816 195.673l.015 4.719c-.017 1.126-.895 2.023-1.963 2.008-1.07-.015-1.925-.938-1.91-2.062l-.013-4.653 3.871-.012z" fill="#f0c7c0" fill-rule="nonzero"/><path d="M123.677 195.684l.011 3.676c-.004.278-.254.498-.558.496-.304-.002-.553-.227-.549-.506l-.011-3.676 1.107.01z" fill="#f0c7c0" fill-rule="nonzero"/><path d="M121.442 197.719a.562.562 0 00-.276.72l.939 2.312c.118.252.437.346.711.215.276-.131.409-.439.291-.691l-.919-2.263a.55.55 0 00-.746-.293" fill="#f8a381" fill-rule="nonzero"/><path d="M114.603 157.362c-.727-2.918-2.994-4.025-4.562-4.191l-9.315-2.689v-2.562h-8.063v2.562l-9.316 2.689c-1.567.166-3.834 1.273-4.562 4.191l-1.444 15.656a5.805 5.805 0 01-.539 1.864l-5.514 12.917c2.928 2.024 4.379.983 4.379.983l6.152-12.25c.41-.711.685-1.495.808-2.312l2.796-11.984c-.278-.776 11.271 3.488 11.271 3.488s11.55-4.264 11.273-3.488l13.384 32.107s1.253 2.435 4.181.41l-10.929-37.391z" fill="#f1f2f2" fill-rule="nonzero"/><path d="M122.189 231.125s-4.514 6.955-25.495 6.955c-20.979 0-24.569-6.955-24.569-6.955 0-54.862 18.532-57.644 18.532-57.644h13.001s18.531 2.782 18.531 57.644" fill="#eef7f7" fill-rule="nonzero"/><path d="M164.081 180.86l-.825-13.289 1.587 9.281a5.687 5.687 0 01-.499 3.469l-.263.539zm3.738-24.629c-.079-1.594-1.292-2.894-2.86-3.06l-10.345-2.689v-2.56h-8.061v2.56l-10.345 2.689c-1.567.166-2.781 1.466-2.86 3.06l-15.034 38.522c2.928 2.024 5.818.321 5.818.321l13.778-27.503-1.656 26.713c0 1.568 1.256 2.841 2.805 2.841h23.049c1.549 0 2.805-1.273 2.805-2.841l-.199-3.205 5.236-8.907a5.875 5.875 0 00.761-3.741l-2.892-22.2z" fill="#333" fill-rule="nonzero"/><path d="M139.424 195.32c-.11 9.194 4.573 35.648 4.573 35.648l-4.884 2.544c-.552.356-.193 1.224.446 1.073 0 0 3.867-.471 7.648-1.807 0 0 1.947-32.201 1.947-37.458h-9.73zM160.356 195.32c.11 9.194-4.573 35.648-4.573 35.648l4.884 2.544c.553.356.194 1.224-.446 1.073 0 0-3.867-.471-7.648-1.807 0 0-1.947-32.201-1.947-37.458h9.73z" fill="#333" fill-rule="nonzero"/><path d="M150.574 175.133c4.432-7.041 4.148-24.65 4.148-24.65v-2.562h-8.209v2.562s-.37 17.609 4.061 24.65" fill="#fff" fill-rule="nonzero"/><path d="M73.809 185.952c-1.284-.261-2.534.582-2.792 1.883-.258 1.302.575 2.568 1.858 2.829 1.284.261 2.535-.582 2.792-1.883.258-1.301-.574-2.568-1.858-2.829" fill="#fcbc85" fill-rule="nonzero"/><path d="M73.07 189.814l-4.582-.851c-1.089-.22-1.799-1.261-1.588-2.323.21-1.062 1.262-1.745 2.35-1.523l4.518.838-.698 3.859z" fill="#fcbc85" fill-rule="nonzero"/><path d="M72.902 190.67l-3.569-.663c-.269-.056-.437-.343-.38-.647.059-.303.323-.508.592-.454l3.569.663-.212 1.101z" fill="#fcbc85" fill-rule="nonzero"/><path d="M146.522 152.687l2.732 3.626H152l2.645-3.626h-8.123zM152.636 175.133h-4.069l.687-18.819h2.695l.687 18.819z" fill="#333" fill-rule="nonzero"/><path d="M146.522 149.297l4.144 2.198 3.979-2.213v5.492l-3.977-2.086-4.146 2.086v-5.477z" fill="#fff" fill-rule="nonzero"/><path fill="#fff" stroke="#2a2e70" stroke-width=".31" d="M156.738 163.282H162v1.291h-5.262z"/><path d="M146.522 149.297l8.123-.015-3.979 2.213-4.144-2.198z" fill="#f0c7c0" fill-rule="nonzero"/><path d="M150.627 149.838c-16.031 0-22.048-8.207-22.048-18.33v-25.927c0-10.123 8.1-18.329 18.092-18.329h7.912c9.991 0 18.091 8.206 18.091 18.329v25.927c0 10.123-6.017 18.33-22.047 18.33" fill="#fbe0d6" fill-rule="nonzero"/><path d="M161.594 129.091h-.446a1.792 1.792 0 01-1.779-1.802v-3.813a1.79 1.79 0 011.779-1.802h.446a1.79 1.79 0 011.779 1.802v3.813c0 .994-.796 1.802-1.779 1.802M140.105 129.091h-.446a1.792 1.792 0 01-1.779-1.802v-3.813c0-.996.798-1.802 1.779-1.802h.446a1.79 1.79 0 011.779 1.802v3.813c0 .994-.796 1.802-1.779 1.802M141.175 102.434s7.133 15.242 31.554 15.242l1.974.304V96.987c0-24.687-38.083-29.555-38.083-8.145 0 0-1.333 2.241 0 5.016 1.335 2.775 4.555 8.576 4.555 8.576" fill="#333" fill-rule="nonzero"/><path d="M128.635 117.675v-6.316s9.245-2.551 12.54-8.925l-4.555-13.592s-10.07-.838-10.07 8.652v20.485l2.085-.304z" fill="#333" fill-rule="nonzero"/><path d="M96.695 149.838c16.03 0 22.047-8.207 22.047-18.33v-25.927c0-10.123-8.1-18.329-18.091-18.329h-7.912c-9.992 0-18.092 8.206-18.092 18.329v25.927c0 10.123 6.017 18.33 22.048 18.33" fill="#fbe0d6" fill-rule="nonzero"/><path d="M85.728 129.091h.446c.981 0 1.779-.808 1.779-1.802v-3.813c0-.996-.798-1.802-1.779-1.802h-.446a1.79 1.79 0 00-1.779 1.802v3.813a1.79 1.79 0 001.779 1.802M107.217 129.091h.445c.982 0 1.779-.808 1.779-1.802v-3.813a1.79 1.79 0 00-1.779-1.802h-.445a1.79 1.79 0 00-1.78 1.802v3.813c0 .994.796 1.802 1.78 1.802" fill="#333" fill-rule="nonzero"/><path d="M74.647 117.675v14.95c-4.076 0-7.378-3.345-7.378-7.475 0-4.127 3.302-7.475 7.378-7.475M118.742 117.675v14.95c4.076 0 7.378-3.345 7.378-7.475 0-4.127-3.302-7.475-7.378-7.475" fill="#f8a381" fill-rule="nonzero"/><path d="M96.369 83.812c-15.325 0-23.881 10.22-23.881 27.078v8.815h1.882c1.072-1.282 8.451-10.377 22.108-10.377 13.656 0 20.905 9.138 22.001 10.446.663 0 1.109-.069 1.772-.069v-8.815c0-16.858-8.557-27.078-23.882-27.078" fill="#c0b9d1" fill-rule="nonzero"/><path d="M111.975 145.481l-3.116 2.307c8.888-2.527 15.389-8.017 17.557-21.633 1.95-13.836-.949-27.809-4.768-33.491-3.82-5.682-12.183-10.651-12.789-10.651 16.583 36.236 7.75 58.197 3.116 63.468" fill="#fff" fill-rule="nonzero"/><path d="M172.674 117.675v14.95c4.076 0 7.378-3.345 7.378-7.475 0-4.127-3.302-7.475-7.378-7.475M128.579 117.675v14.95c-4.075 0-7.378-3.345-7.378-7.475 0-4.127 3.303-7.475 7.378-7.475" fill="#fbe0d6" fill-rule="nonzero"/><path d="M96.479 79.02c-15.325 0-23.451 10.071-23.451 26.929v8.813h1.884c1.072-1.28 8.452-13.051 22.108-13.051 13.657 0 20.906 11.814 22.001 13.122.664 0 1.109-.071 1.772-.071v-8.813c0-16.858-8.989-26.929-24.314-26.929" fill="#fff" fill-rule="nonzero"/><path d="M81.225 145.234l3.116 2.306c-8.888-2.526-15.39-8.016-17.557-21.632-1.951-13.837.948-27.809 4.768-33.491 3.82-5.682 12.183-10.651 12.789-10.651-16.583 36.236-7.75 58.197-3.116 63.468M101.525 155.931h-9.661c-8.695 0-9.96 10.89-6.087 13.735l-.081 7.084 7.398-2.006a8.953 8.953 0 003.6.726 8.948 8.948 0 003.601-.726l7.916 1.181-.893-5.6c3.873-2.846 2.902-14.394-5.793-14.394" fill="#fff" fill-rule="nonzero"/><path d="M66.604 208.298a275.11 275.11 0 00-2.921-.907c4.356-6.819-.114-13.639 5.063-20.457.954.302 1.928.604 2.921.907-4.357 6.818.112 13.638-5.063 20.457" fill="#ff82a5" fill-rule="nonzero"/><path d="M75.268 207.741c-1.19.19-2.385.379-3.586.569 1.51-6.97-4.719-13.937-3.619-20.905 1.19-.19 2.385-.381 3.586-.569-1.511 6.968 4.718 13.937 3.619 20.905" fill="#ff82a5" fill-rule="nonzero"/><path d="M78.46 187.445c0 .683-1.458 1.192-1.6 1.832-.149.661.943 1.758.659 2.355-.289.605-1.819.422-2.23.942-.411.523.103 1.993-.413 2.411-.514.415-1.814-.42-2.411-.127-.587.288-.753 1.84-1.405 1.99-.632.145-1.444-1.178-2.118-1.178-.674 0-1.486 1.323-2.118 1.178-.652-.15-.817-1.704-1.405-1.991-.599-.292-1.899.543-2.413.126-.515-.418 0-1.888-.412-2.41-.409-.521-1.94-.338-2.229-.943-.283-.595.809-1.694.661-2.353-.143-.64-1.602-1.149-1.602-1.832s1.459-1.193 1.602-1.833c.148-.66-.944-1.757-.661-2.354.289-.605 1.82-.422 2.231-.943.41-.522-.103-1.993.412-2.411.514-.414 1.814.42 2.411.127.589-.287.753-1.84 1.405-1.989.632-.146 1.444 1.177 2.118 1.177.676 0 1.488-1.323 2.12-1.177.652.149.816 1.704 1.403 1.991.599.291 1.899-.543 2.413-.127.516.418 0 1.889.413 2.411.41.521 1.941.338 2.228.942.284.596-.808 1.695-.659 2.353.143.64 1.6 1.15 1.6 1.833" fill="#ff82a5" fill-rule="nonzero"/><path d="M71.461 195.433a7.71 7.71 0 01-5.491-2.303 6.353 6.353 0 01-1.838-4.495c0-1.698.652-3.296 1.838-4.495a5.047 5.047 0 017.196 0c1.615 1.634 1.615 4.295 0 5.932a3.356 3.356 0 01-4.781 0 2.841 2.841 0 010-3.975 2.271 2.271 0 013.236 0c.738.75.738 1.971 0 2.721a1.575 1.575 0 01-2.245 0 1.38 1.38 0 01-.183-1.689.34.34 0 01.474-.105.35.35 0 01.105.48.67.67 0 00.088.821.895.895 0 001.275 0 1.242 1.242 0 000-1.735 1.587 1.587 0 00-2.264 0 2.135 2.135 0 000 2.989 2.673 2.673 0 003.811 0 3.538 3.538 0 000-4.949 4.368 4.368 0 00-6.227 0 5.667 5.667 0 00-1.638 4.005 5.66 5.66 0 001.638 4.004 7.032 7.032 0 006.243 1.988.348.348 0 01.12.684 7.608 7.608 0 01-1.357.122" fill="#ecf0ed" fill-rule="nonzero"/><path d="M107.89 133.664c0 6.468-5.175 11.711-11.558 11.711-6.384 0-11.559-5.243-11.559-11.711h23.117zM160.668 133.664c0 5.619-4.495 10.174-10.041 10.174-5.547 0-10.043-4.555-10.043-10.174h20.084z" fill="#db5a7e" fill-rule="nonzero"/></svg>