<svg xmlns="http://www.w3.org/2000/svg" width="280" height="237" viewBox="0 0 280 237">
    <defs>
        <linearGradient id="a" x1="0%" y1="14.16%" y2="85.84%">
            <stop offset="0%" stop-color="#4568DC"/>
            <stop offset="100%" stop-color="#B06AB3"/>
        </linearGradient>
        <linearGradient id="b" x1="51.767%" x2="48.478%" y1="52.816%" y2="47.775%">
            <stop offset="0%" stop-color="gray" stop-opacity=".25"/>
            <stop offset="54%" stop-color="gray" stop-opacity=".12"/>
            <stop offset="100%" stop-color="gray" stop-opacity=".1"/>
        </linearGradient>
        <linearGradient id="c" x1="-4.529%" x2="96.746%" y1="-25.419%" y2="-25.419%">
            <stop offset="0%" stop-color="gray" stop-opacity=".25"/>
            <stop offset="54%" stop-color="gray" stop-opacity=".12"/>
            <stop offset="100%" stop-color="gray" stop-opacity=".1"/>
        </linearGradient>
    </defs>
    <g fill="none" fill-rule="evenodd">
        <path fill="url(#a)" d="M18.972 147.995c-.002.662-.567 1.198-1.265 1.2h-1.795c.699 0 1.265.537 1.265 1.2 0 .662-.566 1.2-1.265 1.2h2.527c.699 0 1.265.537 1.265 1.2 0 .662-.566 1.2-1.265 1.2H6.564c8.113 21.558 23.326 40.405 43.326 54.608.209-.136.456-.209.709-.21H65.23c.699 0 1.265.538 1.265 1.2 0 .663-.566 1.2-1.265 1.2h-1.794c.698 0 1.265.537 1.265 1.2 0 .663-.567 1.2-1.265 1.2h2.53c.698 0 1.265.537 1.265 1.2 0 .663-.567 1.2-1.265 1.2h-5.2c22.407 12.992 49.521 20.597 78.732 20.597a161.612 161.612 0 0 0 50.874-8.099c2.173-.724 4.321-1.49 6.445-2.297a152.684 152.684 0 0 0 10.828-4.633c1.52-.72 3.022-1.465 4.507-2.235l.069-.034.335-.176.87-.457c1.756-.93 3.486-1.893 5.188-2.887l1.047-.616c.885-.528 1.761-1.064 2.628-1.608 1.731-1.08 3.432-2.196 5.102-3.348l.598-.42.482-.337a134.45 134.45 0 0 0 6.56-4.905l.09-.07c1.041-.83 2.067-1.675 3.078-2.534l.09-.076a127.86 127.86 0 0 0 9.422-8.85c4.47-4.64 8.546-9.61 12.19-14.86h-5.832c-.698 0-1.265-.536-1.265-1.2 0-.662.567-1.199 1.265-1.199h-2.527c-.698 0-1.265-.537-1.265-1.2 0-.663.567-1.2 1.265-1.2h1.795a1.284 1.284 0 0 1-1.147-.582c-.24-.38-.24-.853 0-1.233.24-.38.68-.603 1.147-.582h11.151c9.27-15.806 14.483-33.614 14.483-52.458a101.444 101.444 0 0 0-6.202-34.92h-24.818c-1.441-.046-2.584-1.167-2.584-2.534 0-1.368 1.143-2.49 2.584-2.535h-5.341c-1.475 0-2.67-1.134-2.67-2.533 0-1.4 1.195-2.533 2.67-2.533h3.816c-1.441-.046-2.585-1.167-2.585-2.535 0-1.367 1.144-2.489 2.585-2.534h19.41C243.575 27.81 195.374 0 139.5 0c-32.638 0-62.653 9.489-86.424 25.383h6.22c1.44.045 2.584 1.167 2.584 2.534 0 1.368-1.143 2.489-2.584 2.535h-3.807c1.475 0 2.67 1.134 2.67 2.533s-1.195 2.533-2.67 2.533h5.341c.976-.031 1.892.445 2.39 1.242a2.424 2.424 0 0 1 0 2.585c-.498.797-1.414 1.273-2.39 1.242H34.25C12.92 61.33 0 88.433 0 118.094a101.31 101.31 0 0 0 4.154 28.701h13.553c.697.003 1.261.539 1.265 1.2z"/>
        <path fill="url(#b)" fill-rule="nonzero" d="M215.107 97.144c-1.247-.102-5.591-3.416-8.109-4.393-1.16-.45-1.886.501-2.335 1.656-1.543-.954-3.235-2.01-4.485-2.49a1.349 1.349 0 0 0-1.037-.02c-1.62.664-1.967 4.675-1.967 4.675l.056.252c-.795.592-3.181.962-4.215 1.028-1.217.073-2.826.243-3.394.51-.568.265-7.176 1.77-10.976 2.87-3.8 1.097-13.616 6.569-13.616 6.569l-9.305 1.98-1.306-.237c-.416-1.415-2.318-1.4-4.545-.83-3.618-.628-7.227-1.117-8.393-.616 3.334-1.608 7.433-4.158 7.385-6.972-.065-3.838-8.09 1.546-11.128 3.722l-.26.187-.07-.243s-2.215.818-6.939.71c-4.724-.107-6.826 1.996-7.25 2.205-.425.21-4.748 1.588-5.083 1.642-.26.04-7.717.68-11.481.999-5.206-.444-12.723.331-13.135 1.067-.473.85-6.195 3.94-6.195 3.94l-1.962.487s-.233.566-.502 1.29a4.947 4.947 0 0 1-.484-.874 14.348 14.348 0 0 1-.694-2.31c-.024-.104-.05-.21-.078-.314 0-.025-.015-.05-.02-.076l-.072-.263-.018-.066a8.853 8.853 0 0 0-.353-.999 5.214 5.214 0 0 0-.509-.937 3.415 3.415 0 0 0-1.13-1.064c-.75-.433-1.656-.535-2.53-.628a11.68 11.68 0 0 0-2.22-.09c-.638.056-1.262.22-1.9.257-1.025.056-2.032-.218-3.049-.365-1.017-.148-2.123-.145-2.99.393-.73.459-1.151 1.231-1.62 1.93a12.822 12.822 0 0 1-3.337 3.38c-.897.614-1.917 1.206-2.243 2.196-.326.991.126 1.95.326 2.927.443 2.151-.272 4.512.523 6.51.018.045.036.088.057.133.045.108.093.218.15.323a2.898 2.898 0 0 0 .365.54c.07.082.149.156.236.221.085.068.178.126.278.173.366.149.77.193 1.163.127l.215-.028.197-.034c.233-.04.462-.091.688-.156.225-.062.44-.153.64-.269.366-.216.61-.576.667-.982.029-.177.043-.356.042-.535v-.124l.044.13c1.18 3.127 4.193 5.306 7.69 5.56 3.498.254 6.827-1.462 8.498-4.383l.338-.107a21.93 21.93 0 0 1 3.325-.73c.122.236.26.464.412.685 3.68 5.431 15.183 5.618 15.183 5.618s12.71-.467 13.694-.71c.984-.244 3.917.18 4.763.925.846.745 4.574 1.053 5.785-.872 1.211-1.924 2.602-1.554 2.602-1.554.25-.322.465-.668.64-1.033l.81.037c2.137.108 5.57.317 6.311.6 1.095.416 5.795.385 8.336-.628 2.542-1.013 10.465-5.31 10.465-5.31s4.927-1.415 5.804-1.698c.876-.283 3.169-2.355 3.169-2.355l4.724-1.733s4.99-2.547 7.095-2.813c2.105-.266 4.012-2.01 4.012-2.01l13.38-5.898a7.33 7.33 0 0 1 2.691.127c1.196.354 8.985-.727 11.344-3.113 0 0 .087-.309.203-.813.108 0 .219-.02.335-.022.503.104.81.175.81.175a20.97 20.97 0 0 0 3.164 1.848c1.588.722 3.289 1.118 3.887-.118.09-.191.15-.394.18-.6 1.536 1.033 6.709 4.217 6.855.424.18-4.455-7.358-8.511-8.602-8.613z"/>
        <path fill="#EFB7B9" fill-rule="nonzero" d="M90.911 126.721s-2.44-.15-5.842.91a21.837 21.837 0 0 0-3.278 1.302c-5.002 2.453-.849-10.782-.849-10.782s1.393 0 3.066-.138c2-.156 4.399-.48 5.287-1.156 1.631-1.256 1.616 9.864 1.616 9.864zM149.735 101.133c.062 3.517-6.813 6.611-10.078 7.883a35.552 35.552 0 0 1-1.688.612l-.711-4.047s.446-.327 1.167-.822c3.102-2.122 11.243-7.365 11.31-3.626z"/>
        <path fill="#000" fill-rule="nonzero" d="M139.932 108.956a40.003 40.003 0 0 1-1.881.672l-.793-4.445s.497-.36 1.3-.903l1.374 4.676z" opacity=".1"/>
        <path fill="#E1E7EF" fill-rule="nonzero" d="M105.171 110.847s13.037-1.115 13.38-1.17c.342-.053 4.59-1.42 5.007-1.62.417-.202 2.482-2.292 7.126-2.184 4.644.108 6.822-.702 6.822-.702l1.534 5.566-30.964 3.347-2.905-3.237z"/>
        <path fill="#000" fill-rule="nonzero" d="M105.171 110.847s13.037-1.115 13.38-1.17c.342-.053 4.59-1.42 5.007-1.62.417-.202 2.482-2.292 7.126-2.184 4.644.108 6.822-.702 6.822-.702l1.534 5.566-30.964 3.347-2.905-3.237z" opacity=".05"/>
        <path fill="#B07473" fill-rule="nonzero" d="M196.974 96.645s.482-5.718 2.983-4.728c2.501.99 6.822 4.37 8.06 4.463 1.24.094 8.74 4.221 8.562 8.74-.178 4.518-7.232-.732-7.232-.732s-6.563-1.558-8.685-.856c-2.121.702-3.688-6.887-3.688-6.887z"/>
        <path fill="#000" fill-rule="nonzero" d="M216.58 105.12c-.173 4.518-7.238-.732-7.238-.732s-6.564-1.559-8.69-.857c-.603.204-1.206-.291-1.688-1.11-.95-1.55-1.637-4.236-1.888-5.314-.07-.291-.102-.463-.102-.463s.482-5.72 2.985-4.726c2.503.994 6.823 4.356 8.063 4.46 1.239.106 8.726 4.222 8.557 8.741z" opacity=".1"/>
        <path fill="#000" fill-rule="nonzero" d="M203.05 100.074c-.218.535-1.76 1.385-4.156 2.424-.966-1.565-1.666-4.278-1.92-5.366.45-.185.77-.4.822-.641.178-.806 6.502.512 5.254 3.583z" opacity=".1"/>
        <path fill="#444053" fill-rule="nonzero" d="M150.627 110.796l14.324-3.089s9.698-5.433 13.47-6.52c3.772-1.09 10.277-2.585 10.84-2.85.562-.265 2.149-.436 3.35-.507 1.2-.071 4.25-.57 4.424-1.347.173-.778 6.346.492 5.127 3.467-1.218 2.974-44.749 15.917-44.749 15.917l-6.786-5.071z"/>
        <path fill="#000" fill-rule="nonzero" d="M150.627 110.796l14.324-3.089s9.698-5.433 13.47-6.52c3.772-1.09 10.277-2.585 10.84-2.85.562-.265 2.149-.436 3.35-.507 1.2-.071 4.25-.57 4.424-1.347.173-.778 6.346.492 5.127 3.467-1.218 2.974-44.749 15.917-44.749 15.917l-6.786-5.071z" opacity=".1"/>
        <path fill="#B07473" fill-rule="nonzero" d="M222.818 106.01c-.172 4.52-7.235-.731-7.235-.731s-4.592-1.09-7.336-1.037a4.67 4.67 0 0 0-1.353.18c-2.11.702-3.681-6.886-3.681-6.886s.03-.367.117-.897c.257-1.573.998-4.57 2.87-3.83 2.503.993 6.823 4.37 8.062 4.46 1.24.09 8.725 4.232 8.556 8.74z"/>
        <path fill="#000" fill-rule="nonzero" d="M208.913 104.067a4.52 4.52 0 0 0-1.293.17c-2.016.661-3.516-6.484-3.516-6.484s.029-.345.112-.844c1.682-.343 3.09-.65 3.09-.65 3.087.129 2.073 5.765 1.607 7.808z" opacity=".1"/>
        <path fill="#444053" fill-rule="nonzero" d="M207.815 104.986c-2.326 2.338-10.008 3.394-11.178 3.051a7.262 7.262 0 0 0-2.643-.129l-13.183 5.769s-1.882 1.701-3.954 1.965c-2.073.264-6.992 2.75-6.992 2.75l-4.653 1.685s-2.272 2.058-3.133 2.338c-.86.281-5.719 1.66-5.719 1.66s-7.804 4.21-10.31 5.195c-2.505.986-7.131 1.02-8.212.612-.729-.28-4.113-.48-6.215-.586-.998-.048-1.709-.073-1.709-.073l-2.46-17.491s2.033-.424 4.602-.994c3.73-.826 8.59-1.965 9.936-2.56 2.279-1.008 14.425 1.965 16.653 2.007 2.228.042 13.592-3.369 13.592-3.369s14.198-7.528 17.07-7.531c2.874-.003 6.604-1.18 8.921-1.48 2.318-.3 8.106-1.546 8.106-1.546 3.91.168 1.481 8.727 1.481 8.727z"/>
        <path fill="#000" fill-rule="nonzero" d="M86.337 121.66c.322 1.766-.02 3.576-.972 5.154a24.41 24.41 0 0 0-3.447 1.242c-5.26 2.337-.892-10.275-.892-10.275s1.464 0 3.224-.132c1.099 1.143 1.82 2.53 2.087 4.011z" opacity=".1"/>
        <path fill="#EFB7B9" fill-rule="nonzero" d="M85.45 122.102c.726 4.32-2.129 8.455-6.587 9.541-4.457 1.086-9.052-1.233-10.602-5.353a7.928 7.928 0 0 1-.413-1.516c-.74-4.456 2.321-8.683 6.964-9.614 4.643-.932 9.24 1.758 10.457 6.119.076.27.137.546.182.823z"/>
        <path fill="#000" fill-rule="nonzero" d="M131.637 121.733c1.98 3.433.995 6.188.251 7.503-1.06-.048-1.817-.073-1.817-.073l-2.617-17.623s2.163-.427 4.895-1.001l.283-.02s-3.793 6.36-.995 11.214z" opacity=".1"/>
        <path fill="#E1E7EF" fill-rule="nonzero" d="M130.809 122.37c2.641 4.86-.3 8.36-.3 8.36s-1.376-.365-2.572 1.534c-1.197 1.9-4.893 1.597-5.724.85-.83-.748-3.739-1.158-4.71-.915-.972.244-13.543.7-13.543.7s-11.376-.182-15.019-5.54a6.491 6.491 0 0 1-.407-.675s-2.876-5.078-2.966-6.21c-.039-.442.15-1.207.39-1.983.38-1.203.9-2.423.9-2.423l1.94-.481s5.66-3.05 6.125-3.884c.465-.835 10.134-1.716 15.048-.785 4.914.932 14.203.813 14.203.813l7.591-.603s-3.582 6.384-.956 11.242z"/>
        <path fill="#000" fill-rule="nonzero" d="M119.432 130.127a22.182 22.182 0 0 0 3.207-1.544c1.7-1.015-3.207 1.544-3.207 1.544zM91.802 118.27s3.753 6.41 11.778 4.301c8.024-2.108 14.033-.553 14.033-.553s7.506-.396 8.889-.924a59.835 59.835 0 0 1 6.343-1.816c1.184-.221 2.835-.658 4.142-1.032 1.307-.374 8.292-1.724 8.292-1.724s-2.208-4.533-1.138-5.112c0 0-6.895 1.29-6.973.83-.079-.459-7.805-.738-8.434-.276-.63.462-7.53.919-8.133 1.126-.602.208-11.265 1.068-11.265 1.068s-15.998-5.974-17.534 4.113z" opacity=".1"/>
        <path fill="#EFB7B9" fill-rule="nonzero" d="M141.714 111.87s12.884-7.12 13.356-2.419c.473 4.701-12.12 6.416-12.12 6.416l-1.236-3.998z"/>
        <path fill="#000" fill-rule="nonzero" d="M91.802 117.38s3.765 6.409 11.777 4.3c8.012-2.109 14.036-.553 14.036-.553s7.505-.396 8.885-.925a59.67 59.67 0 0 1 6.346-1.815c1.18-.222 2.834-.659 4.141-1.032 1.308-.374 8.292-1.724 8.292-1.724s-2.21-4.533-1.141-5.112c0 0-6.892 1.29-6.973.83-.081-.459-7.804-.738-8.433-.276-.63.462-7.53.918-8.133 1.126-.602.208-11.255 1.065-11.255 1.065s-16.003-5.972-17.542 4.116z" opacity=".1"/>
        <path fill="#E1E7EF" fill-rule="nonzero" d="M90.911 118.27s3.756 6.41 11.777 4.301c8.02-2.108 14.035-.553 14.035-.553s7.506-.396 8.886-.924a59.707 59.707 0 0 1 6.346-1.819c1.18-.218 2.834-.658 4.141-1.032 1.307-.373 8.292-1.721 8.292-1.721s-2.21-4.536-1.142-5.112c0 0-6.89 1.29-6.972.83-.082-.459-7.804-.738-8.434-.276-.63.462-7.514.919-8.132 1.13-.617.21-11.262 1.059-11.262 1.059s-15.996-5.97-17.535 4.118z"/>
        <path fill="#000" fill-rule="nonzero" d="M117.654 116.257c-.12-.278 1.943-.146 6.012-.81 4.069-.665 10.918-2.254 10.918-2.254s-16.015 5.161-16.93 3.064zM102.493 114.084s.191.563-1.778 1.783M105.99 114.976c.317 1.142-.427 2.306-1.71 2.673M89.128 126.514l1.564 1.367s1.679.857 1.858 1.314c.179.457 3.588.374 3.588.374l3.94 2.341-1.673-2.199a4.79 4.79 0 0 0 3.86-.773c1.919-1.348 5.725-4.854 5.725-4.854l6.87-5.037.116-3.246-5.407-.825-12.583 12.009-2.851.38-3.03-.317-1.977-.534z" opacity=".1"/>
        <path fill="#67647E" fill-rule="nonzero" d="M88.237 126.51l1.563 1.368s1.675.857 1.857 1.314c.182.458 3.59.375 3.59.375l3.937 2.343-1.672-2.2a4.774 4.774 0 0 0 3.856-.775c1.92-1.349 5.725-4.858 5.725-4.858l6.876-5.026.115-3.25-5.404-.825-12.591 12.019-2.85.38-3.03-.317-1.972-.549z"/>
        <path fill="#000" fill-rule="nonzero" d="M92.694 125.989l-3.583 1.465a6.003 6.003 0 0 1-.425-.68s-3.023-5.101-3.117-6.242c-.041-.444.157-1.212.412-1.991l6.713 7.448z" opacity=".1"/>
        <path fill="#E1E7EF" fill-rule="nonzero" d="M91.802 125.99l-3.583 1.464a6.477 6.477 0 0 1-.428-.678s-3.02-5.105-3.114-6.243c-.04-.444.158-1.213.41-1.992l6.715 7.45z"/>
        <path fill="url(#c)" fill-rule="nonzero" d="M85.563 120.934a1.532 1.532 0 0 1-.516.404c-.518.221-1.122 0-1.69.025-.57.024-1.144.314-1.733.357a4.827 4.827 0 0 1-1.23-.142c-.777-.15-1.621-.235-2.345.093-.724.328-1.172 1.212-.75 1.838-.46.603-1.354.797-2.143.696-1.846-.243-3.393-1.723-5.275-.576-.818.505-.765 1.286-.747 2.042a7.37 7.37 0 0 1-.399-1.433c-.714-4.213 2.24-8.208 6.718-9.088 4.479-.88 8.913 1.662 10.087 5.784h.023z"/>
        <path fill="#585268" fill-rule="nonzero" d="M68.15 127.837a3.78 3.78 0 0 1-1.307.419 2.584 2.584 0 0 1-1.551-.065 1.984 1.984 0 0 1-.863-.912c-1.104-2.078-.25-4.604-.719-6.889-.197-.963-.63-1.954-.322-2.888.307-.934 1.337-1.56 2.205-2.166a12.7 12.7 0 0 0 3.282-3.335c.463-.691.878-1.453 1.594-1.903.841-.533 1.933-.533 2.933-.388 1 .144 1.99.413 3.001.357.627-.034 1.242-.196 1.868-.252.73-.042 1.464-.012 2.187.09.86.09 1.749.193 2.489.618 1.304.747 1.81 2.265 2.151 3.68.34 1.416.683 2.94 1.835 3.882.19.116.334.287.412.487a.826.826 0 0 1-.26.64l-1.36 1.716a1.97 1.97 0 0 1-.708.64c-.525.232-1.142 0-1.721.023-.579.022-1.16.33-1.764.373a4.704 4.704 0 0 1-1.253-.147c-.79-.156-1.65-.243-2.372.096-.722.34-1.193 1.258-.764 1.906-.471.626-1.381.83-2.18.722-1.884-.25-3.459-1.787-5.372-.597-1.551.985.033 3.007-1.44 3.893z"/>
        <g fill="#000" fill-rule="nonzero" opacity=".1">
            <path d="M84.523 113.181c.26 1.064.52 2.201 1.14 3.092a13.896 13.896 0 0 1-.673-2.234 7.859 7.859 0 0 0-1.028-2.6c.238.565.426 1.148.561 1.742zM86.803 117.857l-.091-.081a1.472 1.472 0 0 1-.222.349l-1.346 1.692a1.97 1.97 0 0 1-.7.631c-.52.23-1.131 0-1.704.023-.573.022-1.15.326-1.746.368a4.67 4.67 0 0 1-1.24-.145c-.783-.153-1.633-.24-2.363.095-.73.335-1.181 1.24-.756 1.88-.466.617-1.364.818-2.159.712-1.86-.246-3.42-1.762-5.315-.59-1.55.967.017 2.961-1.445 3.835a3.717 3.717 0 0 1-1.29.414c-.514.092-1.07.156-1.536-.065a1.618 1.618 0 0 1-.59-.5c.058.152.126.3.203.445.175.378.474.694.854.899.49.178 1.03.2 1.535.064a3.751 3.751 0 0 0 1.294-.413c1.459-.874-.11-2.869 1.444-3.835 1.881-1.173 3.44.344 5.316.59.791.106 1.692-.096 2.159-.713-.425-.64.038-1.544.756-1.88.718-.335 1.565-.248 2.348-.094a4.67 4.67 0 0 0 1.24.145c.59-.042 1.149-.344 1.745-.369.597-.025 1.182.207 1.705-.022.284-.153.525-.37.7-.631l1.346-1.693a.813.813 0 0 0 .257-.631.982.982 0 0 0-.399-.48z"/>
        </g>
        <path fill="#000" fill-rule="nonzero" d="M156.866 114.084s2.182 3.777 1.718 4.403c-.464.626-1.718-4.403-1.718-4.403zM164.888 113.193s1.081 2.23.861 2.674M172.91 106.954s1.251 1.08.787 1.783M174.692 106.063s2.423 2.801 1.619 3.565M204.995 99.824s.299 3.875 1.48 3.545c1.182-.33-1.48-3.545-1.48-3.545z" opacity=".1"/>
        <path stroke="#535461" stroke-width=".52" d="M193.671 203.213s1.598-5.863-.3-10.178a9.918 9.918 0 0 1-.692-5.814c.176-.932.43-1.844.76-2.725"/>
        <path fill="#FBFBFB" fill-rule="nonzero" d="M192.517 182.3c0 .79 1.339 3.087 1.339 3.087s1.335-2.298 1.335-3.088c-.033-.766-.622-1.368-1.337-1.368s-1.303.602-1.337 1.368zM190.043 186.455c.371.59 2.474 1.606 2.474 1.606s-.04-2.398-.408-2.987a1.209 1.209 0 0 0-1.705-.372 1.299 1.299 0 0 0-.36 1.761v-.008zM190.473 193.23c.611.33 2.936.101 2.936.101s-1.211-2.148-1.822-2.48c-.604-.29-1.313-.019-1.61.617-.298.636-.08 1.411.496 1.761zM191.263 198.197c.571.385 3.037.56 3.037.56s-.905-2.052-1.484-2.445c-.375-.249-.869-.3-1.297-.132-.427.167-.723.526-.776.942-.053.416.146.826.52 1.075zM195.658 187.836c-.555.549-3.14 1.116-3.14 1.116s.63-2.613 1.188-3.162a1.383 1.383 0 0 1 1.98.03 1.444 1.444 0 0 1-.028 2.016zM197.235 194.122c-.61.329-2.935.101-2.935.101s1.21-2.149 1.822-2.48c.603-.291 1.312-.02 1.61.616.298.637.08 1.412-.497 1.763zM197.298 199.986c-.563.38-2.998.553-2.998.553s.893-2.027 1.465-2.418c.37-.267.871-.33 1.308-.166.437.165.739.532.786.956.047.424-.169.837-.56 1.075z"/>
        <path stroke="#535461" stroke-width=".52" d="M238.235 197.865s1.598-5.86-.3-10.175a9.934 9.934 0 0 1-.692-5.815c.175-.932.43-1.845.76-2.727"/>
        <path fill="#FBFBFB" fill-rule="nonzero" d="M237.083 176.15c0 .767 1.337 2.998 1.337 2.998s1.334-2.23 1.334-2.997a1.41 1.41 0 0 0-.65-1.262 1.29 1.29 0 0 0-1.372 0 1.41 1.41 0 0 0-.649 1.262zM234.607 180.216c.371.59 2.475 1.606 2.475 1.606s-.038-2.398-.41-2.987a1.209 1.209 0 0 0-1.704-.372 1.299 1.299 0 0 0-.36 1.761v-.008zM234.385 186.992c.744.327 3.588.103 3.588.103s-1.482-2.119-2.23-2.443a1.712 1.712 0 0 0-1.533.052c-.462.258-.727.713-.69 1.188.036.476.367.897.865 1.1zM235.792 191.953c.578.388 3.072.564 3.072.564s-.915-2.07-1.501-2.47c-.587-.356-1.384-.234-1.805.277-.422.512-.318 1.23.234 1.629zM240.222 181.597c-.555.549-3.14 1.116-3.14 1.116s.634-2.613 1.188-3.162a1.383 1.383 0 0 1 1.98.03 1.444 1.444 0 0 1-.028 2.016zM241.76 187.883c-.603.329-2.896.101-2.896.101s1.197-2.13 1.797-2.455c.6-.328 1.334-.067 1.637.583.303.65.062 1.443-.538 1.771zM241.9 193.74c-.57.386-3.036.56-3.036.56s.905-2.052 1.484-2.444c.58-.385 1.396-.275 1.825.245.429.52.307 1.255-.272 1.64z"/>
        <path stroke="#535461" stroke-width=".52" d="M203.475 196.974s1.598-5.862-.3-10.176a9.934 9.934 0 0 1-.692-5.817c.175-.931.43-1.843.76-2.724"/>
        <path fill="#FBFBFB" fill-rule="nonzero" d="M201.43 175.169c0 .79 1.339 3.088 1.339 3.088s1.335-2.298 1.335-3.088c-.033-.766-.622-1.369-1.337-1.369s-1.303.603-1.337 1.369zM199.847 179.325c.371.589 2.474 1.606 2.474 1.606s-.037-2.398-.408-2.987a1.22 1.22 0 0 0-1.099-.577 1.23 1.23 0 0 0-1.033.695c-.2.405-.174.89.066 1.271v-.008zM199.428 186.1c.6.33 2.893.101 2.893.101s-1.194-2.127-1.797-2.456a1.142 1.142 0 0 0-1.218.076 1.355 1.355 0 0 0-.548 1.178c.025.47.28.89.67 1.102zM201.067 191.067c.571.385 3.037.559 3.037.559s-.905-2.051-1.484-2.444c-.375-.249-.869-.3-1.296-.133-.428.167-.724.527-.777.943-.053.416.146.826.52 1.075zM205.462 181.597c-.555.549-3.14 1.116-3.14 1.116s.634-2.613 1.188-3.162a1.383 1.383 0 0 1 1.98.03 1.444 1.444 0 0 1-.028 2.016zM206.148 186.991c-.61.33-2.935.102-2.935.102s1.213-2.149 1.821-2.48c.604-.292 1.313-.02 1.611.616.298.636.079 1.412-.497 1.762zM207.102 192.856c-.563.38-2.998.553-2.998.553s.893-2.028 1.465-2.418c.37-.267.872-.33 1.308-.166.437.165.739.531.786.955.047.424-.168.837-.56 1.076z"/>
        <path fill="#A8A8A8" fill-rule="nonzero" d="M235.3 203.36v.744l.088-.072a128.113 128.113 0 0 0 3.028-2.554l.088-.078c3.244-2.82 6.34-5.8 9.273-8.926-3.14-5.31-10.494-5.339-11.815-5.299h-.206s-.474 9.559-.457 16.185z"/>
        <path fill="#FFF" fill-rule="nonzero" d="M235.3 203.36v.744l.088-.072a128.113 128.113 0 0 0 3.028-2.554l.088-.078c3.244-2.82 6.34-5.8 9.273-8.926-3.14-5.31-10.494-5.339-11.815-5.299h-.206s-.474 9.559-.457 16.185z" opacity=".1"/>
        <path fill="#A8A8A8" fill-rule="nonzero" d="M203.213 193.029l.25 1.58 2.54 16.05.831 5.264.81 5.115c1.509-.724 3-1.473 4.474-2.247l.068-.034.333-.177.863-.459a141.16 141.16 0 0 0 5.15-2.902l1.04-.62c.878-.53 1.748-1.068 2.609-1.616a132.483 132.483 0 0 0 5.064-3.365l.594-.422.478-.339a133.599 133.599 0 0 0 6.512-4.93l.09-.071a128.858 128.858 0 0 0 3.054-2.547l-1.484-7.342a66.38 66.38 0 0 1-.737-4.477 55.848 55.848 0 0 1-.267-2.435c-.02-.194-.038-.39-.053-.585-.51-6.122-2.078-18.84-6.474-21.83a3.432 3.432 0 0 0-2.969-.505c-.436.117-.865.258-1.285.422-3.084 1.186-6.002 3.541-8.421 5.988a42.186 42.186 0 0 0-8.312 12.044l-4.453 9.641-.014.032-.042.088-.25.679z"/>
        <path fill="#FFF" fill-rule="nonzero" d="M213.908 209.452l5.234-16.949s4.9 12.467 8.756 16.664l.485-.34-6.95-16.255s-2.276-9.264-.455-12.637c1.445-2.679 6.189-11.683 8.082-15.296a3.522 3.522 0 0 0-3.01-.504c-.442.117-.877.258-1.303.421-2.408 3.613-6.863 10.828-7.194 15.305a53.158 53.158 0 0 0 .53 11.725l-4.175 17.866z" opacity=".1"/>
        <path fill="#A8A8A8" fill-rule="nonzero" d="M189.843 228.169c2.217-.731 4.407-1.504 6.573-2.32 3.77-1.429 7.45-2.987 11.043-4.674 1.55-.727 3.082-1.479 4.596-2.256l.07-.034-.176-1.05-.192-1.146-.632-3.795s-2.937-11.92-6.042-17.935a11.137 11.137 0 0 0-1.802-2.7 2.059 2.059 0 0 0-.143-.134 3.615 3.615 0 0 0-2.135-.487 4.641 4.641 0 0 0-2.626 1.16c-1.525 1.274-3.187 3.824-4.615 8.705-2.198 7.483-3.342 18.547-3.919 26.666z"/>
        <path fill="#FFF" fill-rule="nonzero" d="M196.974 225.495a149.755 149.755 0 0 0 10.699-4.641 140.235 140.235 0 0 0 4.453-2.24c-.015-.352-.05-.71-.104-1.076 0 0-.375-1.99-4.343-1.84-.272 0-.544.032-.813.063-4.237.51-7.813 3.276-9.24 7.148a11.1 11.1 0 0 0-.652 2.586zM202.153 197.706c.135-3.382-1.799-4.54-3.397-4.927a4.519 4.519 0 0 1 2.582-1.153 6.472 6.472 0 0 1 2.251 3.416l4.08 18.866s-5.744-10.535-5.516-16.202z" opacity=".1"/>
        <path fill="#A8A8A8" fill-rule="nonzero" d="M219.444 213.292l-1.08 1.507 1.016-.642c.858-.55 1.708-1.11 2.55-1.68l-1.65-.351-.836 1.166z"/>
        <path fill="#FFF" fill-rule="nonzero" d="M219.256 214.8c.918-.528 1.828-1.064 2.727-1.609 1.796-1.08 3.56-2.195 5.294-3.346-1.22-.794-2.38-1.345-3.187-1.28 0 0-4.136.259-4.766 5.406-.03.264-.056.54-.068.828z" opacity=".1"/>
        <path fill="#000" fill-rule="nonzero" d="M203.213 191.626l.087.265 8.185 24.442.681 2.032.85-.464a61.399 61.399 0 0 0-7.927-23.417c-.842-1.41-1.482-2.323-1.754-2.682a2.613 2.613 0 0 0-.122-.167v-.009zM234.836 203.428c.026.225.057.449.09.676a126.21 126.21 0 0 0 2.96-2.568l.087-.078-2.228-11.841-.46-2.447a52.565 52.565 0 0 0-.45 16.258z" opacity=".1"/>
        <path fill="#FBFBFB" fill-rule="nonzero" d="M125.692 19.312h3.852c-1.455-.045-2.608-1.163-2.608-2.526 0-1.363 1.153-2.48 2.608-2.525h31.196c1.454.045 2.608 1.162 2.608 2.525s-1.154 2.48-2.608 2.526h-3.851c1.488 0 2.695 1.13 2.695 2.524 0 1.395-1.207 2.525-2.695 2.525h5.39c1.455.045 2.609 1.163 2.609 2.526 0 1.362-1.154 2.48-2.609 2.525h-31.196c-1.454-.045-2.608-1.163-2.608-2.525 0-1.363 1.154-2.48 2.608-2.526h-5.39c-1.49 0-2.696-1.13-2.696-2.525 0-1.394 1.207-2.524 2.695-2.524zM169.365 58.527h3.85c-1.488 0-2.694-1.13-2.694-2.525s1.206-2.525 2.694-2.525h31.19c1.488 0 2.695 1.13 2.695 2.525 0 1.394-1.207 2.525-2.695 2.525h-3.85c1.488 0 2.694 1.13 2.694 2.525 0 1.394-1.206 2.524-2.695 2.524h5.399c1.454.046 2.607 1.164 2.607 2.527 0 1.363-1.153 2.48-2.607 2.526h-31.199c-1.454-.046-2.607-1.163-2.607-2.526 0-1.363 1.153-2.481 2.607-2.527h-5.39c-1.487 0-2.694-1.13-2.694-2.524 0-1.395 1.207-2.525 2.695-2.525zM125.147 179.742h1.785c-.695 0-1.259-.532-1.259-1.188 0-.656.564-1.189 1.259-1.189h14.577c.695 0 1.259.533 1.259 1.189s-.564 1.188-1.259 1.188h-1.785c.695 0 1.259.532 1.259 1.189 0 .656-.564 1.188-1.259 1.188h2.514c.695 0 1.259.532 1.259 1.188 0 .657-.564 1.189-1.259 1.189h-14.574c-.695 0-1.259-.532-1.259-1.189 0-.656.564-1.188 1.259-1.188h-2.517c-.695 0-1.259-.532-1.259-1.188 0-.657.564-1.189 1.259-1.189zM83.988 200.538h1.47c-.546-.025-.974-.417-.974-.89 0-.475.428-.866.974-.892H97.37c.547.026.975.417.975.891 0 .474-.428.866-.975.891H95.9c.547.026.975.417.975.891 0 .474-.428.866-.975.892h2.059c.546.025.975.417.975.89 0 .475-.429.866-.975.892H86.035c-.382.018-.743-.148-.94-.431a.791.791 0 0 1 0-.92c.197-.284.558-.45.94-.431h-2.059c-.38.018-.742-.148-.939-.431a.791.791 0 0 1 0-.92c.197-.284.558-.45.94-.432h.011zM35.127 164.59h1.8c-.695 0-1.258-.532-1.258-1.188 0-.656.563-1.188 1.259-1.188h14.558c.696 0 1.26.532 1.26 1.188 0 .656-.564 1.188-1.26 1.188h-1.785c.695 0 1.259.532 1.259 1.189 0 .656-.564 1.188-1.259 1.188h2.517c.696 0 1.259.532 1.259 1.189 0 .656-.563 1.188-1.259 1.188H37.645c-.695 0-1.259-.532-1.259-1.188 0-.657.564-1.189 1.259-1.189h-2.518c-.695 0-1.258-.532-1.258-1.188 0-.657.563-1.189 1.258-1.189zM162.585 202.025h1.79c-.697 0-1.262-.532-1.262-1.189 0-.656.565-1.188 1.262-1.188h14.62c.698 0 1.263.532 1.263 1.188 0 .657-.565 1.189-1.262 1.189h-1.79c.697 0 1.262.532 1.262 1.188 0 .657-.565 1.189-1.263 1.189h2.525c.672.03 1.2.553 1.2 1.187s-.528 1.157-1.2 1.187h-14.627c-.465.022-.905-.2-1.144-.576a1.13 1.13 0 0 1 0-1.222c.24-.376.679-.597 1.144-.576h-2.518c-.698 0-1.263-.532-1.263-1.189 0-.656.565-1.188 1.263-1.188z" opacity=".1"/>
        <path fill="#FBFBFB" fill-rule="nonzero" d="M183.135 85.881a.781.781 0 0 0-.254-1.01.393.393 0 0 1 .32-.704.369.369 0 0 1 .082.033.785.785 0 0 0 1.013-.25.35.35 0 0 1 .058-.07.394.394 0 0 1 .644.388.517.517 0 0 1-.033.083.781.781 0 0 0 .253 1.01.451.451 0 0 1 .07.058.393.393 0 0 1-.389.644.275.275 0 0 1-.082-.033.787.787 0 0 0-1.013.253.336.336 0 0 1-.055.069.394.394 0 0 1-.647-.388.517.517 0 0 1 .033-.083zM277.611 37.752a.779.779 0 0 0-.253-1.01.393.393 0 0 1 .322-.704c.028.007.055.019.08.032a.781.781 0 0 0 1.013-.253.393.393 0 0 1 .702.322.275.275 0 0 1-.034.08.787.787 0 0 0 .254 1.013.451.451 0 0 1 .068.057.393.393 0 0 1-.388.644.344.344 0 0 1-.082-.033.784.784 0 0 0-1.01.253.693.693 0 0 1-.058.07.393.393 0 0 1-.647-.389.517.517 0 0 1 .033-.082zM276.262 166.573a.785.785 0 0 0-.254-1.014.392.392 0 0 1 .32-.705c.03.007.057.018.083.034a.79.79 0 0 0 1.017-.255.337.337 0 0 1 .055-.069.395.395 0 0 1 .65.39.52.52 0 0 1-.033.083.785.785 0 0 0 .254 1.014.334.334 0 0 1 .066.058.392.392 0 0 1-.376.635.276.276 0 0 1-.083-.03.788.788 0 0 0-1.017.252.35.35 0 0 1-.058.069.395.395 0 0 1-.646-.39.52.52 0 0 1 .022-.072zM85.984 62.71a.782.782 0 0 0-.253-1.01.394.394 0 0 1 .32-.704.369.369 0 0 1 .082.034.784.784 0 0 0 1.012-.25.336.336 0 0 1 .055-.07.393.393 0 0 1 .647.388.407.407 0 0 1-.033.08.784.784 0 0 0 .253 1.013.39.39 0 0 1-.32.702.275.275 0 0 1-.082-.034.786.786 0 0 0-1.012.254.35.35 0 0 1-.058.068.393.393 0 0 1-.644-.388.517.517 0 0 1 .033-.082zM32.51 96.577a.78.78 0 0 0-.254-1.009.39.39 0 0 1 .319-.7c.03.006.057.017.083.033a.786.786 0 0 0 1.011-.253.464.464 0 0 1 .055-.069.393.393 0 0 1 .646.387.517.517 0 0 1-.033.083.78.78 0 0 0 .253 1.009.39.39 0 0 1-.319.7.275.275 0 0 1-.082-.033.786.786 0 0 0-1.012.253.464.464 0 0 1-.055.07.393.393 0 0 1-.646-.388.517.517 0 0 1 .033-.083zM115.532 52.97a.749.749 0 0 0-.353-.933.374.374 0 0 1 .224-.704c.028.004.056.01.082.022a.753.753 0 0 0 .934-.353.376.376 0 0 1 .703.227.477.477 0 0 1-.023.081.751.751 0 0 0 .355.933.377.377 0 0 1-.226.704.413.413 0 0 1-.082-.022.747.747 0 0 0-.932.353.556.556 0 0 1-.047.072.376.376 0 0 1-.656-.298.311.311 0 0 1 .021-.082zM249.912 140.413c.574-.25.87-.89.686-1.488a.668.668 0 0 1-.025-.138.624.624 0 0 1 1.107-.408c.028.038.05.078.069.121.249.575.89.87 1.487.687a.67.67 0 0 1 .138-.028.624.624 0 0 1 .408 1.11.583.583 0 0 1-.122.069c-.567.255-.86.89-.686 1.488.016.044.025.09.028.137a.624.624 0 0 1-1.11.409.459.459 0 0 1-.065-.122 1.229 1.229 0 0 0-1.488-.686.714.714 0 0 1-.137.028.624.624 0 0 1-.409-1.11.649.649 0 0 1 .119-.07zM68.093 151.112c.569-.255.862-.89.687-1.488a.514.514 0 0 1-.028-.134.624.624 0 0 1 1.111-.412c.027.038.05.08.069.122.248.575.89.871 1.489.686a.487.487 0 0 1 .134-.025.624.624 0 0 1 .409 1.108.559.559 0 0 1-.119.068c-.574.25-.87.89-.686 1.488.013.045.021.09.025.137a.624.624 0 0 1-1.109.409.583.583 0 0 1-.068-.122 1.249 1.249 0 0 0-1.49-.686.672.672 0 0 1-.137.028.624.624 0 0 1-.408-1.11.584.584 0 0 1 .121-.069zM125.132 153.785c.574-.248.87-.889.686-1.487a.713.713 0 0 1-.028-.137.624.624 0 0 1 1.112-.409c.027.038.05.079.068.122.25.573.892.867 1.49.683a.669.669 0 0 1 .137-.025.624.624 0 0 1 .41 1.107.584.584 0 0 1-.123.068c-.574.25-.87.89-.687 1.488.014.045.024.09.029.137a.624.624 0 0 1-1.112.409.583.583 0 0 1-.069-.122 1.25 1.25 0 0 0-1.489-.686.513.513 0 0 1-.137.028.624.624 0 0 1-.41-1.107.584.584 0 0 1 .123-.069z" opacity=".3"/>
        <circle cx="7.576" cy="27.184" r="4.902" fill="#FBFBFB" fill-rule="nonzero" opacity=".1"/>
        <circle cx="253.57" cy="32.532" r="4.902" fill="#FBFBFB" fill-rule="nonzero" opacity=".1"/>
        <circle cx="31.195" cy="4.456" r="2.674" fill="#FBFBFB" fill-rule="nonzero" opacity=".1"/>
        <circle cx="276.428" cy="71.373" r="2.674" fill="#FBFBFB" fill-rule="nonzero" opacity=".1"/>
        <circle cx="12.478" cy="209.452" r="2.674" fill="#FBFBFB" fill-rule="nonzero" opacity=".1"/>
        <circle cx="23.173" cy="221.038" r="2.674" fill="#FBFBFB" fill-rule="nonzero" opacity=".1"/>
        <circle cx="2.674" cy="228.169" r="2.674" fill="#FBFBFB" fill-rule="nonzero" opacity=".1"/>
    </g>
</svg>
