<svg viewBox="0 0 123 123" xmlns="http://www.w3.org/2000/svg" fill-rule="evenodd" clip-rule="evenodd" stroke-linejoin="round" stroke-miterlimit="2"><path fill="none" d="M0 0h122.88v122.88H0z"/><path d="M35.812 120.375v1.76h-8.256v-1.392l4.448-4.224c.501-.48.84-.899 1.016-1.256.176-.358.264-.712.264-1.064 0-.523-.176-.923-.528-1.2-.352-.278-.869-.416-1.552-.416-1.141 0-2.016.389-2.624 1.168l-1.456-1.12c.437-.587 1.027-1.043 1.768-1.368.741-.326 1.571-.488 2.488-.488 1.216 0 2.187.288 2.912.864.725.576 1.088 1.36 1.088 2.352 0 .608-.128 1.178-.384 1.712-.256.533-.747 1.141-1.472 1.824l-2.992 2.848h5.28zM40.884 110.935v11.2h-2.08v-9.456h-2.368v-1.744h4.448zM50.404 112.679v3.408h5.408v1.76h-5.408v4.288h-2.08v-11.2H56.5v1.744h-6.096zM66.116 117.911c0 .138-.011.336-.032.592H59.38c.117.629.424 1.128.92 1.496.496.368 1.112.552 1.848.552.939 0 1.712-.31 2.32-.928l1.072 1.232a3.62 3.62 0 01-1.456 1.04c-.587.234-1.248.352-1.984.352-.939 0-1.765-.187-2.48-.56a4.038 4.038 0 01-1.656-1.56c-.389-.667-.584-1.422-.584-2.264 0-.832.189-1.582.568-2.248a4.027 4.027 0 011.576-1.56c.672-.374 1.429-.56 2.272-.56.832 0 1.576.184 2.232.552a3.907 3.907 0 011.536 1.552c.368.666.552 1.437.552 2.312zm-4.32-2.816c-.64 0-1.181.189-1.624.568-.443.378-.712.882-.808 1.512h4.848c-.085-.619-.347-1.12-.784-1.504-.437-.384-.981-.576-1.632-.576zM72.772 113.495c.832 0 1.576.181 2.232.544a3.912 3.912 0 011.544 1.536c.373.661.56 1.424.56 2.288 0 .864-.187 1.629-.56 2.296a3.913 3.913 0 01-1.544 1.544c-.656.362-1.4.544-2.232.544a4.143 4.143 0 01-1.608-.304 3.105 3.105 0 01-1.224-.912v1.104h-1.904v-11.872h2v4.368a3.347 3.347 0 011.208-.848 3.957 3.957 0 011.528-.288zm-.224 7.04c.736 0 1.341-.246 1.816-.736.475-.491.712-1.136.712-1.936s-.237-1.446-.712-1.936c-.475-.491-1.08-.736-1.816-.736-.48 0-.912.109-1.296.328-.384.218-.688.53-.912.936-.224.405-.336.874-.336 1.408 0 .533.112 1.002.336 1.408.224.405.528.717.912.936a2.58 2.58 0 001.296.328zM90.932 120.375v1.76h-8.256v-1.392l4.448-4.224c.501-.48.84-.899 1.016-1.256.176-.358.264-.712.264-1.064 0-.523-.176-.923-.528-1.2-.352-.278-.869-.416-1.552-.416-1.141 0-2.016.389-2.624 1.168l-1.456-1.12c.437-.587 1.027-1.043 1.768-1.368.741-.326 1.571-.488 2.488-.488 1.216 0 2.187.288 2.912.864.725.576 1.088 1.36 1.088 2.352 0 .608-.128 1.178-.384 1.712-.256.533-.747 1.141-1.472 1.824l-2.992 2.848h5.28zM96.004 110.935v11.2h-2.08v-9.456h-2.368v-1.744h4.448z" fill="#b06ab3" fill-rule="nonzero"/><path d="M25.614 77.108a46.534 46.534 0 002.48 3.165 56.787 56.787 0 002.326 2.555c7.918 8.191 18.834 13.509 31.112 13.83 12.332-.177 23.422-5.34 31.409-13.533a45.023 45.023 0 003.447-3.977c.571.34 1.238.525 1.984.525.186 0 .376-.015.569-.045a46.483 46.483 0 01-4.465 5.033c-8.496 8.283-20.155 13.325-32.944 13.141-12.851.336-24.669-4.556-33.242-12.844a38.516 38.516 0 01-2.528-2.692 45.329 45.329 0 01-2.614-3.37c.264-.3.498-.648.697-1.047.113-.225.19-.43.242-.612a5.212 5.212 0 001.527-.129zm34.648-10.139c.025-.979.079-2.169.161-3.569.118-2.022.644-4.777 1.575-8.267.079-.193.207-.29.383-.29.562 0 1.114.097 1.654.29a3.858 3.858 0 011.417.884.361.361 0 01.132.277l-.026.118a55.964 55.964 0 00-2.083 9.572c.228-.484.505-.914.83-1.292a3.721 3.721 0 011.134-.897c.431-.22.923-.329 1.477-.329.72 0 1.296.259 1.727.777.43.519.742 1.204.936 2.057.193.853.29 1.78.29 2.782 0 .87-.062 1.67-.185 2.399a22.8 22.8 0 001.226-.646c1.838-1.055 3.128-2.32 3.871-3.795.143-.423.321-.828.533-1.215.703-1.3 1.626-1.951 2.768-1.951.536 0 1.044.134 1.523.402a3.3 3.3 0 011.167 1.088c.211-.984.378-1.679.501-2.083.061-.193.184-.29.369-.29.747 0 1.432.149 2.056.448.756.361 1.134.694 1.134 1.002 0 .158-.079.505-.237 1.042-.334 1.133-.743 2.852-1.226 5.154-.51 2.426-.765 4.021-.765 4.786 0 .352.057.527.172.527.58 0 1.481-.857 2.702-2.57a41.048 41.048 0 002.307-3.573c.763-1.328 1.279-2.285 1.549-2.869.077-1.124.207-2.282.389-3.472.027-.185.132-.291.317-.317.228-.044.457-.066.685-.066.906 0 1.745.277 2.518.831.106.07.159.162.159.277-.185 1.133-.37 2.386-.554 3.757a19.154 19.154 0 011.147-2.933c.448-.91.958-1.651 1.529-2.222s1.209-.857 1.912-.857c.766 0 1.376.222 1.832.665.668.65 1.002 1.778 1.002 3.383 0 1.336-.198 3.01-.593 5.023-.404 2.17-.607 3.665-.607 4.482 0 .308.049.461.146.461.325 0 .738-.259 1.239-.777.923-.958 1.986-2.431 3.19-4.417.934-1.549 1.611-2.753 2.03-3.613.149-.46.338-.9.567-1.318.703-1.3 1.626-1.951 2.769-1.951.932 0 1.745.383 2.439 1.147.088-.958.158-1.538.211-1.74.07-.193.193-.29.369-.29 1.257 0 2.285.391 3.085 1.173.07.079.105.167.105.264l-.013.119c-.299 1.107-.584 2.667-.857 4.68a128.143 128.143 0 01-.619 3.928c1.344-.834 2.507-1.716 3.487-2.643.98-.927 1.817-2.133 2.511-3.619a.364.364 0 01.356-.237c.062 0 .123.013.185.04.158.087.237.21.237.369 0 .052-.013.11-.04.171-.773 1.644-1.713 2.971-2.821 3.981-1.178 1.082-2.549 2.092-4.113 3.033-.51 2.645-1.182 4.746-2.017 6.301-1.002 1.864-2.294 2.795-3.876 2.795-.554 0-1.035-.125-1.444-.375a2.703 2.703 0 01-.956-.983 2.586 2.586 0 01-.342-1.292c0-.553.175-1.085.527-1.595.606-.905 1.591-1.797 2.953-2.676.598-.396 1.2-.773 1.806-1.134.088-.492.167-.993.238-1.503-.616.949-1.464 1.424-2.545 1.424-.615 0-1.116-.25-1.503-.751-.387-.501-.67-1.152-.85-1.952a11.552 11.552 0 01-.265-2.894c-.188.324-.396.678-.625 1.062a44.937 44.937 0 01-3.032 4.496 19.5 19.5 0 01-.884 1.067c-.826.932-1.608 1.398-2.346 1.398-.431 0-.809-.123-1.134-.369-.659-.475-.989-1.776-.989-3.903 0-1.256.097-2.887.29-4.891.15-1.564.224-2.689.224-3.375 0-.334-.022-.67-.066-1.008-.044-.339-.184-.508-.421-.508-.361 0-.765.418-1.213 1.253-.449.835-.879 1.854-1.292 3.058a32.865 32.865 0 00-1.015 3.599c-.264 1.16-.396 2.092-.396 2.795v.211c0 .281-.024.47-.072.567-.049.097-.218.145-.508.145-1.688 0-2.531-1.951-2.531-5.853l.003-.491a91.07 91.07 0 01-.755 1.328c-1.09 1.885-2.078 3.408-2.966 4.568-1.354 1.766-2.474 2.65-3.362 2.65-.466 0-.844-.09-1.134-.27-.29-.181-.54-.464-.751-.851-.334-.615-.501-1.608-.501-2.979-.642 1.265-1.591 1.898-2.848 1.898-.606 0-1.103-.25-1.49-.751-.386-.501-.67-1.152-.85-1.952a11.552 11.552 0 01-.236-3.388 11.615 11.615 0 01-3.04 2.413c-.598.343-1.208.659-1.832.949-.299 1.204-.721 2.206-1.266 3.006-.545.8-1.151 1.397-1.819 1.793-.668.395-1.328.593-1.978.593-.483 0-.892-.18-1.226-.54a1.924 1.924 0 01-.527-1.279c.035-.932.729-1.732 2.083-2.4.342-.167 1.045-.47 2.109-.909.114-.774.171-1.547.171-2.321 0-1.362-.125-2.562-.375-3.599-.251-1.037-.565-1.555-.943-1.555-.659 0-1.248.681-1.767 2.043a17.37 17.37 0 00-.883 3.375 71.032 71.032 0 00-.039 2.36c0 .519.004 1.042.013 1.569a.432.432 0 01-.251.376c-.158.083-.34.14-.547.171a3.45 3.45 0 01-.481.046c-.114 0-.264-.015-.448-.046a1.64 1.64 0 01-.501-.165c-.15-.079-.238-.189-.264-.329a75.557 75.557 0 01-.3-5.921c-.239.43-.53.94-.873 1.53a67.24 67.24 0 01-2.637 4.153c-1.494 2.162-2.865 3.243-4.113 3.243-1.24 0-1.859-1.362-1.859-4.086 0-1.249.096-2.809.29-4.681.167-1.573.25-2.733.25-3.48 0-.44-.033-.861-.099-1.266-.065-.404-.252-.606-.56-.606-.369 0-.786.376-1.252 1.127-.466.751-.906 1.67-1.319 2.755a17.992 17.992 0 00-.909 3.263l-.29 1.582a17.84 17.84 0 00-.251 1.886c-.044.562-.123.883-.237.962-.062.044-.18.066-.356.066-.809 0-1.389-.36-1.74-1.081-.326-.642-.493-1.428-.501-2.36v-.409c0-.931.026-1.736.079-2.412.053-.642.079-1.218.079-1.727 0-1.24-.22-1.859-.659-1.859-.58 0-1.2 1.199-1.859 3.599a40.136 40.136 0 00-.804 3.428c-.211 1.125-.321 1.942-.33 2.452 0 .263-.167.395-.501.395-1.67 0-2.505-1.854-2.505-5.563 0-.185.005-.427.014-.724-.277.486-.615 1.066-1.016 1.739a44.767 44.767 0 01-3.032 4.496c-.255.334-.549.689-.883 1.067-.826.932-1.609 1.398-2.347 1.398-.431 0-.809-.123-1.134-.369-.65-.466-.98-1.745-.989-3.837v-.87a6.93 6.93 0 01-.896 1.338c-.343.4-.73.719-1.16.956a2.958 2.958 0 01-1.45.356c-1.635 0-2.453-1.362-2.453-4.087 0-1.063.132-2.303.396-3.718.545-2.944.989-4.416 1.332-4.416 1.256 0 2.285.391 3.084 1.173a.385.385 0 01.106.264c0 .053-.07.29-.211.712a63.654 63.654 0 00-1.239 4.06c-.44 1.609-.659 2.817-.659 3.626 0 .158.015.387.046.685.03.299.208.449.534.449.606 0 1.186-.528 1.74-1.582.422-.809.745-1.743.969-2.802.224-1.059.411-1.988.56-2.788.44-2.531.822-3.797 1.147-3.797 1.257 0 2.285.391 3.085 1.173a.39.39 0 01.106.264c0 .018-.163.584-.488 1.701-1.336 4.456-2.004 7.404-2.004 8.846 0 .65.141.975.422.975.325 0 .738-.259 1.239-.777.923-.958 1.986-2.431 3.19-4.417.992-1.643 1.693-2.899 2.104-3.767.037-.447.085-.925.144-1.434.11-.936.205-1.637.284-2.103.035-.193.151-.303.349-.329.198-.027.398-.04.6-.04.94 0 1.797.286 2.571.857a.28.28 0 01.132.237l-.014.066c-.061.361-.259 1.666-.593 3.916.193-.809.448-1.547.765-2.215.316-.668.707-1.206 1.173-1.615.466-.409 1.024-.613 1.674-.613 1.697 0 2.637 1.033 2.822 3.098.325-.861.709-1.661 1.153-2.399.444-.739.956-1.336 1.536-1.793a3.056 3.056 0 011.938-.686c1.881 0 2.821 1.38 2.821 4.14 0 1.16-.193 2.804-.58 4.931-.413 2.223-.619 3.695-.619 4.416 0 .352.048.527.145.527.334 0 .751-.259 1.252-.777.905-.95 1.965-2.422 3.177-4.417.992-1.632 1.7-2.894 2.127-3.787zm46.982 15.428c.396 0 .758-.268 1.088-.804.33-.536.631-1.255.903-2.156.272-.9.519-1.913.738-3.038l-.408.263c-1.037.633-1.85 1.209-2.439 1.727-.897.791-1.345 1.569-1.345 2.334 0 .431.13.817.389 1.16.259.343.617.514 1.074.514zm-87.183-4.232c-1.371 0-2.531-.883-3.48-2.65-.8-1.459-1.323-3.076-1.569-4.851-.58.413-1.2.8-1.859 1.16a51.113 51.113 0 00-.026 1.661l.013 1.661c0 .167-.079.292-.237.376a1.702 1.702 0 01-.548.171 3.486 3.486 0 01-.494.046c-.105 0-.253-.015-.442-.046a1.546 1.546 0 01-.501-.164c-.145-.08-.226-.189-.244-.33a70.174 70.174 0 01-.329-6.579c0-1.125.031-2.21.092-3.256.176-2.98.743-6.21 1.701-9.69.053-.202.171-.303.356-.303a4.88 4.88 0 011.648.29 3.859 3.859 0 011.424.883.425.425 0 01.118.29c0 .07-.024.174-.072.31-.049.136-.112.341-.191.613a56.488 56.488 0 00-2.163 11.958c1.231-1.011 2.261-2.259 3.092-3.745a22.139 22.139 0 001.964-4.739c.479-1.674.789-3.289.93-4.845.044-.51.246-.765.606-.765 1.081 0 1.793.073 2.136.218.343.145.514.349.514.613 0 .325-.083.989-.25 1.991-.73 4.359-2.554 7.949-5.472 10.771.194 1.019.46 2.012.798 2.979a7.495 7.495 0 001.483 2.544c.651.73 1.538 1.249 2.663 1.556.246.07.38.125.402.165.022.04.033.072.033.099 0 .079-.044.206-.131.382a2.65 2.65 0 01-.693.89c-.276.224-.701.336-1.272.336zm44.284-1.12c.272 0 .545-.101.817-.304.677-.509 1.182-1.52 1.516-3.032l-.382.158a12.35 12.35 0 00-1.2.528 4.933 4.933 0 00-1.094.731c-.307.277-.461.6-.461.969 0 .255.079.477.237.666.158.189.347.284.567.284zm13.065-2.953c.879 0 1.652-1.051 2.32-3.151.141-.431.281-1.117.422-2.057.062-.448.127-.883.198-1.305.026-.167.044-.343.053-.528 0-.184-.04-.355-.119-.514a1.305 1.305 0 00-.317-.408c-.272-.255-.54-.383-.804-.383-.386 0-.784.216-1.193.646-.409.431-.754 1.099-1.035 2.004-.281.905-.422 2.074-.422 3.507 0 .343.031.681.093 1.015.061.334.16.613.296.837.137.224.306.337.508.337zm30.929 0c.606 0 1.164-.506 1.674-1.517a12.73 12.73 0 00.91-2.544c.14-1.222.263-2.334.369-3.335a1.708 1.708 0 00-.528-.686c-.228-.176-.452-.264-.672-.264-.387 0-.784.216-1.193.646-.409.431-.754 1.099-1.035 2.004-.281.905-.422 2.074-.422 3.507 0 .343.033.681.099 1.015.066.334.165.613.297.837.131.224.298.337.501.337zm1.175-12.748c-.581 0-1.468-.149-2.664-.448-1.195-.299-2.557-1.143-4.086-2.531-1.811.791-3.832 1.186-6.065 1.186-2.267 0-4.016-.703-5.247-2.109-.984-1.125-1.477-2.663-1.477-4.614 0-.457.084-1.468.251-3.033.167-1.564 1.314-4.218 3.441-7.962-1.09-4.131-1.652-7.585-1.688-10.363 0-2.496.304-4.693.91-6.592.607-1.898 1.604-3.383 2.993-4.456 1.388-1.072 3.243-1.608 5.563-1.608 1.442 0 2.751.387 3.929 1.16 1.178.774 2.013 1.907 2.505 3.401.228.704.343 1.486.343 2.347 0 .967-.211 2.281-.633 3.942-.422 1.661-1.626 3.889-3.613 6.684l-1.054 1.45c-2.602 3.569-4.527 6.61-5.775 9.123.545 1.389 1.332 2.949 2.36 4.681a26.886 26.886 0 003.652 4.812c1.477-.914 2.619-2.075 3.428-3.481 1.388-2.461 2.083-5.484 2.083-9.07v-.238c0-.492.343-.738 1.028-.738.633 0 .949.229.949.686 0 2.566-.465 5.119-1.397 7.659-.932 2.54-2.567 4.628-4.904 6.263 1.265 1.072 2.628 1.766 4.087 2.083.404.088.817.131 1.239.131 1.09 0 2.206-.29 3.348-.87a.943.943 0 01.422-.105c.299 0 .519.141.659.422a.55.55 0 01.08.29c0 .351-.167.624-.501.817-1.442.721-2.83 1.081-4.166 1.081zM98.94 57.495c.756 0 1.618-.115 2.584-.343-2.144-2.303-3.928-5.027-5.352-8.174-.739 1.775-1.108 3.305-1.108 4.588 0 .896.185 1.67.554 2.32.615 1.072 1.723 1.609 3.322 1.609zm-77.497-2.433c-.118 0-.285-.013-.499-.041a1.407 1.407 0 01-.533-.164c-.141-.082-.212-.191-.212-.328 0-.091.078-.916.233-2.474.401-4.102.61-8.217.628-12.346 0-1.085-.027-2.078-.082-2.981-.054-.902-.164-1.631-.328-2.187-.164-.556-.405-.834-.724-.834-.875 0-1.805 1.139-2.789 3.418-1.149 2.67-1.869 5.186-2.161 7.547-.483 3.937-.888 5.988-1.216 6.152-.274.137-.606.205-.998.205-.128 0-.297-.013-.506-.041a1.404 1.404 0 01-.527-.164c-.141-.082-.211-.191-.211-.328 0-.483.018-.884.054-1.203.255-2.607.383-5.109.383-7.506 0-4.812-.524-7.219-1.572-7.219-.83 0-1.682.976-2.557 2.926a24.992 24.992 0 00-2.242 10.432l.014 3.951c0 .282-.26.469-.78.56a3.615 3.615 0 01-.601.055 3.17 3.17 0 01-.417-.034 1.558 1.558 0 01-.486-.15c-.155-.078-.241-.19-.259-.335-.392-3.127-.588-6.043-.588-8.75 0-.483.023-1.618.068-3.405.046-1.786.501-4.498 1.367-8.134.046-.201.169-.301.369-.301 1.131 0 2.069.264 2.817.793.364.255.547.455.547.601 0 .073-.041.251-.123.533-.356 1.222-.689 2.685-.998 4.389a18.366 18.366 0 011.49-3.158c.574-.957 1.228-1.73 1.962-2.317.733-.588 1.552-.882 2.454-.882.711 0 1.278.287 1.702.861.424.574.734 1.34.93 2.297.196.957.303 2.032.321 3.226.702-2.251 1.549-4.06 2.543-5.427 1.157-1.604 2.465-2.406 3.924-2.406 1.13 0 1.896 1.011 2.297 3.035.255 1.276.382 2.903.382 4.881 0 2.615-.25 5.874-.751 9.775-.438 3.391-.78 5.697-1.026 6.918-.027.155-.123.273-.287.355-.273.137-.611.205-1.012.205zm55.713-11.771c.511-1.121 1.076-2.625 1.695-4.512-.783-.437-1.175-1.353-1.175-2.748 0-.738.171-1.299.512-1.681.342-.383.718-.575 1.128-.575.757 0 1.135.561 1.135 1.682 0 .1-.011.328-.034.684-.023.355-.148.929-.376 1.722.93.383 2.06.602 3.391.656.802.028 1.344.137 1.627.329.145.1.218.268.218.505 0 .247-.077.566-.232.957a69.619 69.619 0 00-2.024 5.797c-.428 1.413-.642 2.457-.642 3.131 0 .474.132.711.396.711.675 0 1.436-.424 2.284-1.271a16.213 16.213 0 001.736-2.065c.793-1.148 1.44-2.256 1.941-3.322.073-.164.196-.246.369-.246a.46.46 0 01.178.041c.164.082.246.209.246.383 0 .155-.296.752-.888 1.791-.812 1.476-1.855 2.871-3.131 4.183-1.422 1.468-2.707 2.201-3.856 2.201-.929 0-1.504-.505-1.722-1.517a9.003 9.003 0 01-.192-1.928c0-.729.091-1.727.274-2.994.182-1.267.464-2.62.847-4.061.082-.291.123-.542.123-.751 0-.575-.401-.976-1.203-1.204l-.164-.054c-.716 2.187-1.268 3.62-1.655 4.299l.001.035c0 .209-.565 1.292-1.695 3.247-1.131 1.955-2.156 3.534-3.077 4.737-1.403 1.832-2.565 2.748-3.486 2.748-.483 0-.875-.093-1.176-.28-.301-.187-.56-.481-.779-.882-.346-.638-.52-1.668-.52-3.09-.665 1.313-1.649 1.969-2.953 1.969-.629 0-1.144-.26-1.545-.779-.401-.52-.695-1.194-.881-2.024a11.97 11.97 0 01-.274-3.031c-.272.438-.557.856-.854 1.254-.957 1.267-1.914 1.9-2.872 1.9-.802 0-1.453-.269-1.955-.806a14.289 14.289 0 01-.984 2.693c-.392.793-.852 1.426-1.381 1.9-.528.474-1.13.711-1.805.711-.638 0-1.182-.187-1.633-.56-.451-.374-.825-.864-1.121-1.47a8.538 8.538 0 01-.677-2.03c-.547 1.494-1.367 2.242-2.461 2.242-1.313 0-2.288-.716-2.926-2.147-.511-1.164-.787-2.676-.828-4.534-.233.42-.513.913-.84 1.479-1.13 1.955-2.155 3.534-3.076 4.737-1.404 1.832-2.566 2.748-3.486 2.748-.483 0-.875-.093-1.176-.28-.301-.187-.561-.481-.779-.882-.347-.638-.52-1.668-.52-3.09-.665 1.313-1.65 1.969-2.953 1.969-.629 0-1.144-.26-1.545-.779-.401-.52-.695-1.194-.882-2.024a11.97 11.97 0 01-.28-2.639c0-1.613.342-3.044 1.025-4.292.729-1.349 1.686-2.024 2.871-2.024.556 0 1.083.139 1.579.417a3.41 3.41 0 011.21 1.128c.219-1.021.392-1.741.52-2.16.064-.201.191-.301.383-.301.775 0 1.485.155 2.133.465.783.374 1.175.72 1.175 1.039 0 .164-.082.524-.246 1.08-.346 1.176-.77 2.958-1.271 5.346-.529 2.515-.793 4.17-.793 4.963 0 .364.059.547.178.547.601 0 1.535-.889 2.802-2.666a42.683 42.683 0 002.393-3.706c.792-1.379 1.328-2.372 1.607-2.978l.006-.111c.146-2.653.429-3.979.848-3.979 1.303 0 2.365.41 3.185 1.231.073.063.11.141.11.232l-.014.082c-.228.802-.465 1.9-.711 3.295-.237 1.331-.355 2.493-.355 3.486 0 .255.013.602.041 1.039.027.438.139.853.335 1.244.196.392.499.588.909.588.82 0 1.294-1.257 1.422-3.773.054-1.176.191-2.142.41-2.899.055-.2.178-.3.369-.3 1.167 0 2.028.214 2.584.642a.273.273 0 01.109.233.783.783 0 01-.013.15c-.21.702-.388 1.577-.534 2.625a15.23 15.23 0 00-.136 2.065c0 2.05.56 3.076 1.681 3.076.383 0 .746-.246 1.087-.739.342-.492.65-1.143.923-1.955.274-.811.511-1.718.711-2.72-.547-1.586-.82-3.314-.82-5.182 0-1.267.059-2.347.178-3.24.191-1.413.514-2.119.97-2.119.337 0 .597.237.78.711.3.802.451 2.05.451 3.746 0 1.075-.037 2.119-.11 3.131-.1 1.421-.218 2.552-.355 3.39.538.738 1.098 1.108 1.681 1.108.739 0 1.527-.602 2.366-1.805a21.198 21.198 0 001.817-3.116c.15-.449.338-.877.562-1.286.729-1.349 1.686-2.024 2.871-2.024.556 0 1.082.139 1.579.417.497.278.9.654 1.21 1.128.219-1.021.392-1.741.519-2.16.064-.201.192-.301.383-.301.775 0 1.486.155 2.133.465.784.374 1.176.72 1.176 1.039 0 .164-.082.524-.246 1.08-.347 1.176-.771 2.958-1.272 5.346-.529 2.515-.793 4.17-.793 4.963 0 .364.059.547.178.547.601 0 1.536-.889 2.803-2.666a42.66 42.66 0 002.392-3.706c.811-1.412 1.354-2.419 1.627-3.021zm-47.414 7.465c.912 0 1.714-1.089 2.406-3.268.146-.446.292-1.157.438-2.133.064-.464.132-.916.205-1.353.027-.173.046-.356.055-.547 0-.191-.041-.369-.123-.533a1.353 1.353 0 00-.329-.424c-.282-.264-.56-.397-.834-.397-.401 0-.813.224-1.237.67-.424.447-.781 1.14-1.073 2.079-.292.938-.438 2.151-.438 3.636 0 .356.032.707.096 1.053s.166.636.308.868c.141.233.316.349.526.349zm35.027 0c.912 0 1.714-1.089 2.407-3.268.146-.446.291-1.157.437-2.133.064-.464.132-.916.205-1.353.028-.173.046-.356.055-.547 0-.191-.041-.369-.123-.533a1.35 1.35 0 00-.328-.424c-.283-.264-.561-.397-.834-.397-.401 0-.814.224-1.237.67-.424.447-.782 1.14-1.074 2.079-.291.938-.437 2.151-.437 3.636 0 .356.032.707.095 1.053.064.346.167.636.308.868.141.233.317.349.526.349zm41.424-14.03a46.74 46.74 0 011.314 4.881 3.135 3.135 0 00-.164.161c-.435.47-.708 1.075-.708 1.857v.238c0 2.486-.356 4.673-1.099 6.553-.13-3.62-.7-7.127-1.655-10.469.222-.313.451-.629.685-.95a2922.9 2922.9 0 011.056-1.452l.013-.018c.193-.272.379-.539.558-.801zm-11.287 3.076l.791-1.239c3.815-6.117 5.722-10.793 5.722-14.027 0-.545-.062-1.02-.185-1.424-.404-1.178-1.098-1.767-2.083-1.767-1.424.088-2.518.725-3.282 1.912-.765 1.186-1.292 2.553-1.582 4.1-.291 1.547-.436 2.892-.436 4.034a37.66 37.66 0 001.055 8.411zM21.07 27.907a47.485 47.485 0 017.204-9.448C36.747 9.837 48.502 4.454 61.532 4.328c13.056.054 24.879 5.38 33.396 13.992l.163.165a10.118 10.118 0 00-2.469 2.406 16.366 16.366 0 00-.133-.132C84.533 12.89 73.595 8.026 61.532 8.077c-12.091-.118-23.097 4.681-31.097 12.543a44.13 44.13 0 00-6.408 7.952 3.588 3.588 0 00-2.187-.714c-.259 0-.516.016-.77.049z" fill="url(#_Linear1)"/><defs><linearGradient id="_Linear1" x1="0" y1="0" x2="1" y2="0" gradientUnits="userSpaceOnUse" gradientTransform="matrix(107.524 0 0 195.302 8.855 45.298)"><stop offset="0" stop-color="#4568dc"/><stop offset="1" stop-color="#b06ab3"/></linearGradient></defs></svg>