<svg viewBox="0 0 150 37" xmlns="http://www.w3.org/2000/svg" fill-rule="evenodd" clip-rule="evenodd" stroke-linejoin="round" stroke-miterlimit="2"><path fill="none" d="M0 0h150v36.216H0z"/><path d="M48.973 23.818a47.181 47.181 0 01-1.731 3.358c-.19.325-.38.651-.543.977-.787 1.248-2.226 3.229-3.312 2.849-.488-.271-.624-1.14-.651-1.682-.027-.299-.027-.489-.027-.489 0-.217.027-.353.027-.353.434-3.473 1.683-6.187 2.552-9.498 1.873-2.551 12.211-13.515 7.817-14.597-5.27-1.489-10.867 12.183-12.226 20.275-.229.478-.466.947-.721 1.408-1.113 2.114-2.551 4.477-3.962 5.4-1.167.733-2.144-.055-2.144-.055-1.085-1.138-.435-3.611-.272-4.207.516-1.708 1.357-4.315 2.958-9.255 0 0 .407-1.301-.868-1.571-1.276-.271-1.845.729-1.845.729l-1.899 5.429c-.515 1.195-.976 2.281-1.545 3.313-.923 1.734-2.09 3.663-3.231 4.424-.978.596-1.765-.055-1.765-.055-.895-.924-.353-2.932-.217-3.42.407-1.411.597-2.47 1.901-6.513 0 0 .353-1.059-.707-1.276a1.487 1.487 0 00-.597-.027 1.237 1.237 0 00-.38.135c-.19.109-.326.218-.407.326l-.055.055c-.217.271-1.138 1.276-2.33 1.466-1.495.216-3.203-.271-4.046-1.113 1.142-.435 2.007-1.331 1.844-2.608-.405-1.082-1.573-1.109-2.334-.514-.783.623-.919 1.954-.513 2.769-3.501.57-6.189.787-8.822 1.276-3.31.65-8.084 3.228-6.782 7.379.513 1.739 2.47 3.609 4.259 2.606 1.167-.54 2.034-1.899 1.113-3.04a4.2 4.2 0 00-.895-.812c-.49-.298-1.276-.705-1.818-.271a.83.83 0 00-.162 1.191c.325.408.839.38 1.245.109.027 0 .027 0 .054-.027.354-.19.735.027.98.326.623.761-.218 1.603-.898 1.875-1.544.622-2.794-.979-3.229-2.174-.785-3.907 3.202-5.971 6.242-6.539 2.796-.514 5.483-.704 9.037-1.329 1.683 1.734 3.747 1.952 5.809 1.329.243-.081.487-.189.704-.271l-1.192 3.718-.027.027c-.407 1.331-.949 3.445-.678 4.967.079.462.269.894.54 1.246.353.463.923.79 1.684.898 2.226.352 4.289-2.361 5.917-5.319-.325 1.409-.569 3.012-.325 4.258.108.572.325 1.115.678 1.549.433.541 1.111.948 2.033 1.083 2.802.452 5.395-3.058 7.401-6.782-.029.376-.044.729-.044 1.056v.353c0 .461.054.922.136 1.357.217 1.438.677 2.252 1.192 2.659.163.109.325.19.488.244 2.442.543 4.641-3.012 5.076-3.745.333-.589.656-1.203.966-1.828a20.346 20.346 0 00-.205 2.67c-.027 1.519.217 3.093 1.113 3.745 2.317 1.794 4.943-1.469 7.08-5.501.004.323.023.639.057.943.217 2.688 2.439 4.694 4.938 4.883 1.928.028 3.745-1.272 5.29-3.009 1.214-1.377 2.268-3.023 3.096-4.502.052.713.338 1.472 1.248 1.758.434.109 1.138.054 2.496-1.924 4.425-6.868 5.157-7.951 5.509-8.279.298-.299.678 0 .515.355-.651 2.332-1.409 4.668-2.087 7.001-.162 1.194.38 2.277 1.491 2.114 1.302-.189 2.444-2.005 3.092-2.875 1.467-2.224 2.906-4.288 4.182-6.43 0 0 .625-1.086.842-.787.055.108-.244.869-.679 2.006-1.167 3.041-4.535 12.429.269 14.491 1.683.733 3.556-2.062 4.261-3.094 2.118-3.039 3.638-6.92 4.425-8.356 1.249-2.308 3.773-4.097 6.379-3.313 1.3.38 2.034 1.276 2.034 1.276-1.114.408-2.197 1.223-1.98 2.472.189 1.11 1.545 1.191 2.279.677.893-.623.974-1.899.704-2.741 3.012-.38 5.944-.38 8.876-.761 3.119-.407 6.242-1.761 7.162-4.803.733-2.413-1.381-6.185-4.043-4.992-1.193.459-2.141 1.763-1.301 2.986.216.297.54.622.866.839.462.325 1.222.786 1.793.406.38-.27.489-.812.217-1.191-.299-.434-.815-.434-1.249-.19h-.027c-.381.19-.734-.054-.951-.353-.595-.788.299-1.576.978-1.821 2.254-.757 3.501 2.526 3.069 4.125-.869 2.934-3.965 4.017-6.595 4.37-3.122.38-6.136.298-9.092.814-.814-1.167-2.173-1.843-3.473-1.951-2.687-.272-5.483 1.598-6.46 4.097-3.149 6.945-4.588 8.41-6.379 9.224-1.954-.271-.923-5.237.108-8.816 1.493-4.722 1.628-5.048 1.683-5.374.162-.652.081-1.386-.678-1.956-1.708-1.275-3.744 2.282-3.744 2.282-1.493 2.332-3.666 6.375-5.51 8.114-.354.353-.462-.19-.435-.407 0-1.739 2.633-7.52 1.984-6.408.54-1.844.269-2.602-.109-2.9-1.223-.843-3.095 1.517-3.257 1.706-1.954 2.607-3.393 5.323-5.321 7.683-.462.516-.38 0-.38 0s1.249-3.311 2.281-6.353c.434-1.303-.109-1.303-.109-1.303h-1.385c-.733-.054-1.058.301-1.194.6a435.675 435.675 0 01-1.647 5.012c-4.686 10.45-8.771 9.197-9.506 8.856-4.069-2.009-1.276-11.455 2.634-12.297 2.278.163.027 4.156-1.928 4.672-.679.135-1.222.135-1.466.135-.163 0-.381.216-.136.378 1.656.488 5.374-.432 6.241-4.125.678-3.119-1.706-4.286-4.177-3.201-2.992 1.284-4.884 4.677-5.49 7.918-1.506 2.944-3.573 6.288-4.957 6.761-1.221.19-.896-1.926-.896-1.926.516-4.071 1.954-7.273 2.985-11.127 2.199-3.012 14.299-15.849 9.145-17.121C57.151.44 51.06 14.254 48.973 23.818zm54.718-1.171c-.272.217-.843.352-1.115.081-.865-.869.87-1.982 1.55-2.145.271.679.217 1.656-.435 2.064zm-85.026-5.404c.68-.46 1.494-.244 1.305.598-.163.815-.87 1.276-1.604 1.467-.325-.652-.271-1.603.299-2.065zm28.795-4.288c3.122-6.839 4.75-8.248 5.375-7.029.162.869-1.33 3.366-1.738 4.044-.787 1.221-1.819 2.795-5.131 6.975.109-.38.706-2.226 1.494-3.99zm15.145-9.091c.162 1.031-1.574 3.935-2.063 4.749-.896 1.411-2.117 3.257-5.998 8.169.136-.462.842-2.606 1.764-4.695 3.637-8.006 5.537-9.632 6.297-8.223z" fill="url(#_Linear1)" fill-rule="nonzero"/><path d="M147.581 12.588a2.88 2.88 0 00-2.88-2.88H101.52a2.88 2.88 0 00-2.88 2.88v13.44c0 1.589 1.29 2.88 2.88 2.88h43.181c1.59 0 2.88-1.291 2.88-2.88v-13.44z" fill="#ff858d"/><text x="105.893" y="25.152" font-family="'Montserrat-SemiBold','Montserrat'" font-weight="600" font-size="16.7" fill="#fff">I<tspan x="112.055px 128.839px" y="25.152px 25.152px">MS</tspan></text><defs><linearGradient id="_Linear1" x1="0" y1="0" x2="1" y2="0" gradientUnits="userSpaceOnUse" gradientTransform="matrix(140.896 0 0 37.4178 -23.971 14.552)"><stop offset="0" stop-color="#b06ab3"/><stop offset="1" stop-color="#ff858d"/></linearGradient></defs></svg>