<svg xmlns="http://www.w3.org/2000/svg" width="132" height="121" viewBox="0 0 132 121">
    <defs>
        <linearGradient id="a" x1="0%" y1="24.117%" y2="75.883%">
            <stop offset="0%" stop-color="#4568DC"/>
            <stop offset="100%" stop-color="#B06AB3"/>
        </linearGradient>
    </defs>
    <g fill="none" fill-rule="evenodd">
        <text fill="#B06AB3" font-family="Montserrat-SemiBold, Montserrat SemiBold" font-size="14" font-weight="500" letter-spacing=".316" transform="translate(-2 -2)">
            <tspan x="22.778" y="122">23 FEB 2020</tspan>
        </text>
        <path fill="url(#a)" d="M102.14 80.434c.482.061 1.03.11 1.647.144-8.85 9.986-21.893 16.297-36.438 16.297-14.299 0-27.147-6.1-35.988-15.794a8.68 8.68 0 0 0 1.388-.44c8.583 9.177 20.907 14.93 34.6 14.93 13.746 0 26.112-5.797 34.7-15.035l.092-.102zM38.373 59.566c.755 0 2.397.126 4.929.378 2.531.252 4.39.378 5.575.378 1.32 0 2.275-.12 2.868-.358.458.477.687 1.153.687 2.027 0 .636-.202 1.167-.606 1.59-4.282 4.427-7.541 8.058-9.776 10.894a3.4 3.4 0 0 1 .606-.04c.592 0 1.521.126 2.787.378s2.181.378 2.747.378c.943 0 1.683-.16 2.222-.477.296.662.444 1.299.444 1.908 0 .901-.303 1.55-.909 1.948-.606.398-1.609.597-3.01.597-.673 0-2.026-.12-4.06-.358-2.033-.239-3.615-.358-4.746-.358-1.347 0-2.464.12-3.353.358-.512-.69-.767-1.246-.767-1.67 0-.398.161-.901.484-1.51.97-1.67 4.282-5.554 9.938-11.65-.646 0-1.616-.08-2.909-.238-1.292-.16-2.289-.239-2.989-.239a5.33 5.33 0 0 0-2.383.557c-.216-.769-.324-1.471-.324-2.107 0-1.59.849-2.386 2.545-2.386zm17.946 0c.754 0 2.397.126 4.928.378 2.532.252 4.39.378 5.575.378 1.32 0 2.276-.12 2.868-.358.458.477.687 1.153.687 2.027 0 .636-.202 1.167-.606 1.59-4.282 4.427-7.54 8.058-9.776 10.894a3.4 3.4 0 0 1 .606-.04c.592 0 1.521.126 2.787.378s2.182.378 2.747.378c.943 0 1.683-.16 2.222-.477.296.662.444 1.299.444 1.908 0 .901-.303 1.55-.908 1.948-.606.398-1.61.597-3.01.597-.673 0-2.027-.12-4.06-.358-2.033-.239-3.616-.358-4.747-.358-1.346 0-2.464.12-3.353.358-.511-.69-.767-1.246-.767-1.67 0-.398.161-.901.485-1.51.97-1.67 4.282-5.554 9.937-11.65-.646 0-1.616-.08-2.908-.238-1.293-.16-2.29-.239-2.99-.239a5.33 5.33 0 0 0-2.383.557c-.216-.769-.323-1.471-.323-2.107 0-1.59.848-2.386 2.545-2.386zm24.974 0c2.747 0 5.427.875 8.04 2.624-1.213 5.62-1.819 9.502-1.819 11.65 0 1.006.431 1.775 1.293 2.305-.7 2.014-2.047 3.022-4.04 3.022-1.104 0-1.898-.292-2.383-.875-.485-.583-.727-1.471-.727-2.664 0-.424.013-.755.04-.994-.754 1.458-1.67 2.578-2.747 3.36s-2.195 1.173-3.353 1.173c-1.508 0-2.733-.603-3.676-1.81-.943-1.205-1.414-2.961-1.414-5.267 0-2.068.39-4.029 1.172-5.884.78-1.856 2.013-3.426 3.696-4.712 1.683-1.285 3.656-1.928 5.918-1.928zm14.754-.08c2.29 0 3.434 1.1 3.434 3.3 0 .054-.007.153-.02.299a3.94 3.94 0 0 0-.02.338c.807-1.246 1.784-2.2 2.928-2.863 1.145-.663 2.242-.994 3.293-.994 1.427 0 2.531.43 3.312 1.292.781.862 1.172 1.982 1.172 3.36 0 .477-.276 2.034-.828 4.671-.553 2.638-.829 4.261-.829 4.87 0 1.06.458 1.856 1.374 2.386-.323.954-.875 1.696-1.656 2.227-.781.53-1.63.795-2.545.795-.97 0-1.791-.299-2.465-.895-.673-.596-1.01-1.411-1.01-2.445 0-.848.256-2.551.768-5.109s.768-4.327.768-5.307c0-1.485-.445-2.227-1.334-2.227-.646 0-1.366.557-2.16 1.67-.795 1.113-1.368 2.399-1.718 3.856-.377 3.128-.565 5.527-.565 7.197 0 .61.054 1.365.161 2.266-1.023.45-2.154.676-3.393.676-2.074 0-3.11-.743-3.11-2.227 0-.132.269-1.928.807-5.387.539-3.459.808-5.6.808-6.42 0-1.167-.417-1.843-1.252-2.028.162-1.008.64-1.81 1.434-2.406a4.304 4.304 0 0 1 2.646-.894zM30.728 52.29c2.209 0 3.313.703 3.313 2.108 0 .132-.06.556-.182 1.272-.121.716-.296 1.776-.525 3.18-.172 1.054-.332 2.13-.48 3.228l-.146 1.106-1.01 7.673-.063.45c-.281 2.06-.422 3.66-.422 4.798 0 .902.054 1.683.162 2.346-.889.292-2.114.437-3.676.437-1.131 0-1.933-.198-2.404-.596-.471-.398-.707-1.02-.707-1.869 0-.134.048-.549.145-1.243l.057-.407c.135-.94.377-2.677.727-5.208s.714-5.254 1.09-8.17c.513-4.055.809-7.01.89-8.866.835-.159 1.912-.239 3.231-.239zm49.797 10.815c-1.132 0-2.02.808-2.667 2.425-.646 1.617-.97 3.432-.97 5.447 0 1.325.149 2.431.445 3.32.296.887.727 1.331 1.293 1.331.512 0 1.09-.404 1.737-1.212.582-.728 1.076-1.654 1.483-2.779l.133-.382 1.01-6.72-.162-.184c-.756-.83-1.523-1.246-2.302-1.246zm34.225-4.534a46.493 46.493 0 0 1-4.669 13.002c.036-1.316.413-2.619.915-5.058a45.03 45.03 0 0 0 2.36-7.75c.39-.069.859-.131 1.367-.191l.027-.003zm-94.295-6.644A45.16 45.16 0 0 0 23.3 65.492l-.35 2.654a46.43 46.43 0 0 1-3.826-16.203l1.33-.016zm93.814-26.555c1.79 0 3.323.41 4.595 1.23 1.273.819 1.909 1.723 1.909 2.713 0 1.144-.723 1.809-2.168 1.994-.44-1.05-1.084-1.847-1.932-2.388a5.15 5.15 0 0 0-2.828-.812c-1.603 0-2.946.464-4.03 1.392-1.084.927-1.626 2.149-1.626 3.664 0 1.051.409 2.002 1.226 2.852.816.85 2.042 1.276 3.676 1.276.377 0 .675-.015.895-.046.063.433.094.71.094.835 0 .247-.031.456-.094.626-.063.17-.118.309-.165.417-.047.108-.173.209-.377.302-.204.092-.33.147-.377.162-.04.013-.173.044-.398.09l-.24.05a4.246 4.246 0 0 1-.375.069c-2.2.495-3.896 1.484-5.09 2.968-1.194 1.485-1.791 3.123-1.791 4.917 0 1.855.644 3.448 1.932 4.778 1.288 1.33 3.064 1.994 5.326 1.994 3.016 0 5.388-.92 7.116-2.76 1.729-1.84 2.907-4.986 3.535-9.439-1.162-.34-2.12-.51-2.875-.51-.597 0-1.052.185-1.366.556-.315.372-.472.866-.472 1.485 0 .835.22 1.5.66 1.994-.471.959-1.131 1.438-1.98 1.438-.848 0-1.272-.618-1.272-1.855 0-1.454.597-2.868 1.791-4.244s2.64-2.064 4.336-2.064c.88 0 2.168.232 3.865.695 1.696.464 2.843.696 3.44.696 1.32 0 1.98-.68 1.98-2.04a3.41 3.41 0 0 0-.613-1.995c.44-.928 1.115-1.392 2.026-1.392.849 0 1.273.619 1.273 1.856 0 1.391-.597 2.79-1.79 4.197-1.195 1.407-2.625 2.11-4.29 2.11-.534 0-1.1-.061-1.696-.185-1.132 5.102-2.907 8.744-5.326 10.924-2.42 2.18-5.483 3.27-9.19 3.27-3.142 0-5.64-.866-7.494-2.598-1.854-1.731-2.78-3.803-2.78-6.215 0-1.825.596-3.556 1.79-5.195 1.194-1.64 2.938-2.938 5.232-3.896-2.514-1.237-3.77-3.046-3.77-5.427 0-2.289.934-4.275 2.803-5.96 1.87-1.686 4.171-2.529 6.905-2.529zm-28.001-4.539c2.047 0 3.07 1.193 3.07 3.579 0 1.934-.431 5.42-1.293 10.456 1.131-1.431 2.161-2.459 3.09-3.081a5.365 5.365 0 0 1 3.05-.935c1.186 0 2.175.385 2.97 1.153.794.769 1.191 1.763 1.191 2.982 0 1.643-.525 3.128-1.575 4.453-1.05 1.325-2.357 2.12-3.919 2.385.087.234.19.51.31.827l.094.247.27.707.094.247a16.622 16.622 0 0 0 .646 1.451c.081.146.175.325.283.537.108.212.216.358.323.437.108.08.23.173.364.279a.955.955 0 0 0 .424.198c.148.027.303.04.465.04.565 0 1.265-.12 2.1-.358.189.61.283 1.06.283 1.352 0 .875-.43 1.537-1.293 1.988-.861.45-1.818.676-2.868.676-.915 0-1.616-.093-2.1-.279-.485-.185-.943-.57-1.374-1.152-.808-1.114-1.643-3.393-2.505-6.839-.134-.132-.202-.358-.202-.676 0-.636.216-1.312.647-2.027.323.08.606.119.848.119.808 0 1.502-.345 2.08-1.034a3.6 3.6 0 0 0 .87-2.385c0-1.034-.486-1.55-1.455-1.55-.323 0-.68.105-1.07.317-.391.212-.876.73-1.455 1.55-.521.74-.96 1.684-1.318 2.831l-.116.39-.08.477-.084.515c-.456 2.88-.684 5.134-.684 6.761 0 .61.053 1.365.161 2.266-1.023.45-2.154.676-3.393.676-2.074 0-3.11-.742-3.11-2.226 0-.769.518-4.394 1.554-10.874 1.037-6.48 1.556-10.251 1.556-11.311 0-1.14-.418-1.763-1.253-1.869.135-.927.613-1.71 1.435-2.345.821-.637 1.81-.955 2.969-.955zm-47.575 9.94c2.343 0 3.515 1.219 3.515 3.657 0 .928-.263 2.585-.788 4.97-.525 2.386-.801 4.135-.828 5.248 0 1.458.431 2.187 1.293 2.187.62 0 1.306-.53 2.06-1.59s1.306-2.333 1.656-3.817c.727-4.241 1.158-7.514 1.293-9.82 1.077-.371 2.02-.557 2.828-.557 2.1 0 3.15.954 3.15 2.863 0 .583-.289 2.478-.868 5.685-.579 3.207-.868 5.05-.868 5.526 0 1.034.43 1.803 1.292 2.306-.242.795-.7 1.498-1.373 2.107-.673.61-1.535.915-2.586.915-1.238 0-2.08-.312-2.524-.935-.445-.622-.667-1.477-.667-2.564 0-.45.014-.795.04-1.034a10.346 10.346 0 0 1-2.807 3.2c-1.172.889-2.43 1.333-3.777 1.333-1.428 0-2.532-.424-3.313-1.272-.78-.849-1.171-1.949-1.171-3.3 0-.583.269-2.134.808-4.652.538-2.518.808-4.214.808-5.089 0-1.113-.418-1.802-1.253-2.067.162-1.034.64-1.842 1.434-2.426a4.368 4.368 0 0 1 2.646-.874zm35.81 0c2.047 0 3.07 1.192 3.07 3.578 0 1.06-.296 2.942-.888 5.646-.593 2.703-.89 4.373-.89 5.009 0 1.06.432 1.855 1.294 2.385-.377 1.008-.936 1.77-1.677 2.287a4.178 4.178 0 0 1-2.444.775c-2.29 0-3.434-1.206-3.434-3.618 0-1.246.303-3.207.91-5.884.605-2.677.908-4.347.908-5.01 0-1.14-.417-1.762-1.252-1.868.135-.928.613-1.71 1.434-2.346.821-.636 1.811-.954 2.97-.954zm-13.542-3.777c1.239 0 2.08.112 2.525.338.444.225.667.642.667 1.252 0 .424-.122 1.299-.364 2.624 3.07 0 5.17-.066 6.302-.199.135.477.202.968.202 1.471 0 1.485-.673 2.28-2.02 2.386-.795.047-2.237.073-4.326.078l-.764.001c-.889 6.203-1.333 9.608-1.333 10.218 0 .663.202 1.166.606 1.51.404.345.916.518 1.535.518 1.077 0 1.966-.411 2.666-1.233.727.716 1.09 1.445 1.09 2.187 0 1.537-1.669 2.306-5.008 2.306-2.37 0-4.094-.45-5.171-1.352-1.077-.901-1.616-2.24-1.616-4.015 0-.504.067-1.293.202-2.366.135-1.074.337-2.478.606-4.214.27-1.736.444-2.923.525-3.559-.35 0-1.414.08-3.191.239a8.755 8.755 0 0 1-.081-1.074c0-1.886.722-2.865 2.166-2.937l.177-.005h1.333l.025-.151c.078-.48.177-1.185.298-2.115.135-1.034.202-1.59.202-1.67.808-.159 1.724-.238 2.747-.238zm-31.85-3.578c1.103 0 2.342.145 3.716.437-.622 1.656-1.193 4.453-1.715 8.388l-.063.478-1.333 9.263-.068.451c-.332 2.224-.497 3.982-.497 5.275 0 .689.054 1.365.161 2.027-.97.292-2.249.437-3.837.437-1.078 0-1.839-.212-2.283-.636-.444-.424-.666-1.06-.666-1.908 0-.954.996-6.282 2.989-15.983-3.313 7.369-5.642 13.465-6.989 18.289a16.34 16.34 0 0 1-2.383.199c-2.1 0-3.3-.636-3.596-1.909-.592-2.624-1.575-8.15-2.949-16.579-.861 8.403-1.292 13.757-1.292 16.063 0 .53.054 1.245.161 2.146-.942.212-2.087.318-3.433.318-1.94 0-2.909-.768-2.909-2.305 0-.239.054-.703.162-1.392.107-.69.255-1.617.444-2.783.168-1.037.303-1.895.407-2.576l.037-.247L4.63 30.852l.076-.565c.219-1.677.328-3.172.328-4.484 0-.69-.04-1.338-.122-1.948a24.674 24.674 0 0 1 4-.318c1.427 0 2.43.265 3.01.795.578.53 1.056 1.51 1.433 2.942a76.32 76.32 0 0 1 1.01 4.393c.324 1.604.573 2.922.748 3.956.175 1.034.424 2.558.747 4.572.323 2.015.552 3.42.687 4.215 2.316-6.945 4.888-13.134 7.716-18.567.835-1.617 2.45-2.425 4.847-2.425zm46.806-1.511c.997 0 1.764.318 2.303.954.538.636.808 1.391.808 2.266 0 1.034-.344 1.928-1.03 2.684-.687.755-1.663 1.133-2.93 1.133-1.023 0-1.797-.298-2.322-.895-.525-.596-.788-1.318-.788-2.166 0-1.034.357-1.955 1.07-2.764.714-.808 1.677-1.212 2.89-1.212zM67.35 2.083c17.17 0 32.246 8.795 40.808 22.045-.405.161-.81.348-1.214.558C98.6 11.878 83.985 3.388 67.349 3.388c-14.705 0-27.832 6.634-36.443 17.02a26.105 26.105 0 0 0-1.715.023C38.024 9.267 51.83 2.083 67.349 2.083z" transform="translate(-2 -2)"/>
    </g>
</svg>
